<svg xmlns="http://www.w3.org/2000/svg" xmlns:xlink="http://www.w3.org/1999/xlink" width="673" zoomAndPan="magnify" viewBox="0 0 504.75 144.749998" height="193" preserveAspectRatio="xMidYMid meet" version="1.0"><defs><clipPath id="be454bc880"><path d="M 5.238281 4.929688 L 69.597656 4.929688 L 69.597656 102.914062 L 5.238281 102.914062 Z M 5.238281 4.929688 " clip-rule="nonzero"/></clipPath><clipPath id="c53f1ce58a"><path d="M 5.300781 75.621094 L 5.300781 102.78125 L 69.53125 69.898438 L 69.53125 38.773438 L 5.300781 4.992188 L 5.300781 32.304688 L 47.039062 54.257812 Z M 5.300781 75.621094 " clip-rule="nonzero"/></clipPath><clipPath id="e2c4139973"><path d="M 0.238281 0.929688 L 64.550781 0.929688 L 64.550781 98.78125 L 0.238281 98.78125 Z M 0.238281 0.929688 " clip-rule="nonzero"/></clipPath><clipPath id="e764e8261f"><path d="M 0.300781 71.621094 L 0.300781 98.78125 L 64.53125 65.898438 L 64.53125 34.773438 L 0.300781 0.992188 L 0.300781 28.304688 L 42.039062 50.257812 Z M 0.300781 71.621094 " clip-rule="nonzero"/></clipPath><clipPath id="223eb258bd"><rect x="0" width="65" y="0" height="99"/></clipPath><clipPath id="fc54444080"><path d="M 45 91.609375 L 69.597656 91.609375 L 69.597656 133.933594 L 45 133.933594 Z M 45 91.609375 " clip-rule="nonzero"/></clipPath><clipPath id="335a113567"><path d="M 45.144531 91.660156 L 45.144531 121.28125 L 69.320312 133.867188 L 69.320312 104.648438 Z M 45.144531 91.660156 " clip-rule="nonzero"/></clipPath><clipPath id="23f7a6d52c"><path d="M 0.113281 0.609375 L 24.550781 0.609375 L 24.550781 42.929688 L 0.113281 42.929688 Z M 0.113281 0.609375 " clip-rule="nonzero"/></clipPath><clipPath id="ad2d1711c1"><path d="M 0.144531 0.660156 L 0.144531 30.28125 L 24.320312 42.867188 L 24.320312 13.648438 Z M 0.144531 0.660156 " clip-rule="nonzero"/></clipPath><clipPath id="9a2856ae3a"><rect x="0" width="25" y="0" height="43"/></clipPath><clipPath id="ad09fc6df4"><path d="M 111.675781 121.125 L 132.191406 121.125 L 132.191406 123.113281 L 111.675781 123.113281 Z M 120.5 123.113281 L 123.375 123.113281 L 123.375 124.5 L 120.5 124.5 Z M 110.589844 124.5 L 133.390625 124.5 L 133.390625 126.375 L 110.589844 126.375 Z M 114.453125 127.671875 L 119.503906 127.671875 L 119.503906 129.050781 L 114.453125 129.050781 Z M 124.363281 127.664062 L 129.515625 127.664062 L 129.515625 129.050781 L 124.363281 129.050781 Z M 110.589844 126.375 L 113.363281 126.375 L 113.363281 129.75 L 110.589844 129.75 Z M 130.613281 126.375 L 133.390625 126.375 L 133.390625 129.75 L 130.613281 129.75 Z M 124.363281 130.238281 L 129.515625 130.238281 L 129.515625 131.625 L 124.363281 131.625 Z M 114.453125 130.25 L 119.503906 130.25 L 119.503906 131.636719 L 114.453125 131.636719 Z M 120.5 126.375 L 123.375 126.375 L 123.375 132.027344 L 120.5 132.027344 Z M 112.273438 133.023438 L 131.703125 133.023438 L 131.703125 135 L 112.273438 135 Z M 128.828125 135 L 131.703125 135 L 131.703125 137.078125 L 128.828125 137.078125 Z M 120.601562 135 L 123.375 135 L 123.375 137.078125 L 120.601562 137.078125 Z M 120.601562 137.078125 L 131.703125 137.078125 L 131.703125 137.085938 L 120.601562 137.085938 Z M 112.273438 135 L 115.050781 135 L 115.050781 137.085938 L 112.273438 137.085938 Z M 112.273438 137.085938 L 131.703125 137.085938 L 131.703125 138.765625 L 112.273438 138.765625 Z M 120.601562 138.765625 L 123.375 138.765625 L 123.375 140.851562 L 120.601562 140.851562 Z M 128.828125 138.765625 L 131.703125 138.765625 L 131.703125 140.851562 L 128.828125 140.851562 Z M 112.273438 138.765625 L 115.050781 138.765625 L 115.050781 140.851562 L 112.273438 140.851562 Z M 112.273438 140.851562 L 131.703125 140.851562 L 131.703125 142.835938 L 112.273438 142.835938 Z M 112.273438 142.835938 L 115.050781 142.835938 L 115.050781 143.824219 L 112.273438 143.824219 Z M 128.828125 142.835938 L 131.703125 142.835938 L 131.703125 143.824219 L 128.828125 143.824219 Z M 128.828125 142.835938 " clip-rule="nonzero"/></clipPath><clipPath id="5adfabf714"><path d="M 1.675781 0.125 L 22.191406 0.125 L 22.191406 2.113281 L 1.675781 2.113281 Z M 10.5 2.113281 L 13.375 2.113281 L 13.375 3.5 L 10.5 3.5 Z M 0.589844 3.5 L 23.390625 3.5 L 23.390625 5.375 L 0.589844 5.375 Z M 4.453125 6.671875 L 9.503906 6.671875 L 9.503906 8.050781 L 4.453125 8.050781 Z M 14.363281 6.664062 L 19.515625 6.664062 L 19.515625 8.050781 L 14.363281 8.050781 Z M 0.589844 5.375 L 3.363281 5.375 L 3.363281 8.75 L 0.589844 8.75 Z M 20.613281 5.375 L 23.390625 5.375 L 23.390625 8.75 L 20.613281 8.75 Z M 14.363281 9.238281 L 19.515625 9.238281 L 19.515625 10.625 L 14.363281 10.625 Z M 4.453125 9.25 L 9.503906 9.25 L 9.503906 10.636719 L 4.453125 10.636719 Z M 10.5 5.375 L 13.375 5.375 L 13.375 11.027344 L 10.5 11.027344 Z M 2.273438 12.023438 L 21.703125 12.023438 L 21.703125 14 L 2.273438 14 Z M 18.828125 14 L 21.703125 14 L 21.703125 16.078125 L 18.828125 16.078125 Z M 10.601562 14 L 13.375 14 L 13.375 16.078125 L 10.601562 16.078125 Z M 10.601562 16.078125 L 21.703125 16.078125 L 21.703125 16.085938 L 10.601562 16.085938 Z M 2.273438 14 L 5.050781 14 L 5.050781 16.085938 L 2.273438 16.085938 Z M 2.273438 16.085938 L 21.703125 16.085938 L 21.703125 17.765625 L 2.273438 17.765625 Z M 10.601562 17.765625 L 13.375 17.765625 L 13.375 19.851562 L 10.601562 19.851562 Z M 18.828125 17.765625 L 21.703125 17.765625 L 21.703125 19.851562 L 18.828125 19.851562 Z M 2.273438 17.765625 L 5.050781 17.765625 L 5.050781 19.851562 L 2.273438 19.851562 Z M 2.273438 19.851562 L 21.703125 19.851562 L 21.703125 21.835938 L 2.273438 21.835938 Z M 2.273438 21.835938 L 5.050781 21.835938 L 5.050781 22.824219 L 2.273438 22.824219 Z M 18.828125 21.835938 L 21.703125 21.835938 L 21.703125 22.824219 L 18.828125 22.824219 Z M 18.828125 21.835938 " clip-rule="nonzero"/></clipPath><clipPath id="b42a533a86"><rect x="0" width="24" y="0" height="23"/></clipPath><clipPath id="6c932f6cf1"><path d="M 150.667969 120.132812 L 173.355469 120.132812 L 173.355469 143.878906 L 150.667969 143.878906 Z M 150.667969 120.132812 " clip-rule="nonzero"/></clipPath><clipPath id="e3a37cf8b7"><path d="M 152.84375 143.824219 C 152.574219 143.554688 152.183594 143.0625 151.65625 142.335938 C 151.195312 141.746094 150.867188 141.347656 150.667969 141.148438 C 156.085938 138.441406 158.792969 134.078125 158.792969 128.058594 L 151.457031 128.058594 L 151.457031 125.09375 L 158.992188 125.09375 C 158.992188 124.566406 159.023438 123.738281 159.09375 122.621094 C 159.09375 121.5 159.121094 120.671875 159.191406 120.144531 L 162.464844 120.144531 C 162.398438 120.742188 162.367188 121.5625 162.367188 122.621094 C 162.296875 123.675781 162.265625 124.496094 162.265625 125.09375 L 173.269531 125.09375 C 173.136719 128.730469 172.910156 133.121094 172.578125 138.273438 C 172.507812 141.507812 170.863281 143.09375 167.628906 143.035156 C 166.171875 143.09375 164.421875 143.132812 162.375 143.132812 C 162.308594 142.535156 162.148438 141.648438 161.878906 140.457031 C 161.808594 140.257812 161.777344 140.128906 161.777344 140.058594 C 163.625 140.1875 165.210938 140.257812 166.53125 140.257812 C 168.445312 140.457031 169.433594 139.339844 169.503906 136.886719 C 169.503906 136.484375 169.535156 135.855469 169.605469 135 C 169.734375 131.765625 169.804688 129.449219 169.804688 128.058594 L 161.96875 128.058594 C 161.96875 135.269531 158.933594 140.519531 152.851562 143.824219 " clip-rule="nonzero"/></clipPath><clipPath id="6d586edd7c"><path d="M 0.667969 0.132812 L 23.292969 0.132812 L 23.292969 23.878906 L 0.667969 23.878906 Z M 0.667969 0.132812 " clip-rule="nonzero"/></clipPath><clipPath id="8c81b39246"><path d="M 2.84375 23.824219 C 2.574219 23.554688 2.183594 23.0625 1.65625 22.335938 C 1.195312 21.746094 0.867188 21.347656 0.667969 21.148438 C 6.085938 18.441406 8.792969 14.078125 8.792969 8.058594 L 1.457031 8.058594 L 1.457031 5.09375 L 8.992188 5.09375 C 8.992188 4.566406 9.023438 3.738281 9.09375 2.621094 C 9.09375 1.5 9.121094 0.671875 9.191406 0.144531 L 12.464844 0.144531 C 12.398438 0.742188 12.367188 1.5625 12.367188 2.621094 C 12.296875 3.675781 12.265625 4.496094 12.265625 5.09375 L 23.269531 5.09375 C 23.136719 8.730469 22.910156 13.121094 22.578125 18.273438 C 22.507812 21.507812 20.863281 23.09375 17.628906 23.035156 C 16.171875 23.09375 14.421875 23.132812 12.375 23.132812 C 12.308594 22.535156 12.148438 21.648438 11.878906 20.457031 C 11.808594 20.257812 11.777344 20.128906 11.777344 20.058594 C 13.625 20.1875 15.210938 20.257812 16.53125 20.257812 C 18.445312 20.457031 19.433594 19.339844 19.503906 16.886719 C 19.503906 16.484375 19.535156 15.855469 19.605469 15 C 19.734375 11.765625 19.804688 9.449219 19.804688 8.058594 L 11.96875 8.058594 C 11.96875 15.269531 8.933594 20.519531 2.851562 23.824219 " clip-rule="nonzero"/></clipPath><clipPath id="339d179ca5"><rect x="0" width="24" y="0" height="24"/></clipPath><clipPath id="36c0bfe514"><path d="M 191.242188 120.234375 L 215.375 120.234375 L 215.375 143.722656 L 191.242188 143.722656 Z M 191.242188 120.234375 " clip-rule="nonzero"/></clipPath><clipPath id="966d84c617"><path d="M 206.707031 127.871094 C 206.105469 127.269531 205.089844 126.351562 203.632812 125.09375 C 203.101562 124.695312 202.703125 124.367188 202.445312 124.105469 L 204.128906 122.21875 C 205.976562 123.675781 207.503906 124.867188 208.691406 125.792969 Z M 205.617188 133.808594 C 204.828125 133.152344 203.632812 132.191406 202.054688 130.933594 C 201.792969 130.675781 201.554688 130.476562 201.355469 130.335938 L 203.140625 128.449219 C 203.472656 128.707031 203.972656 129.078125 204.628906 129.539062 C 205.746094 130.394531 206.714844 131.125 207.503906 131.722656 Z M 200.757812 138.671875 L 200.457031 135.894531 L 209.183594 135.109375 L 209.183594 120.234375 L 212.15625 120.234375 L 212.15625 134.796875 L 215.230469 134.5 L 215.332031 137.375 L 212.15625 137.574219 L 212.15625 143.722656 L 209.183594 143.722656 L 209.183594 137.875 Z M 192.03125 124.296875 C 191.972656 123.378906 191.839844 122.480469 191.640625 121.621094 C 194.085938 121.5625 197.09375 121.320312 200.667969 120.933594 L 201.265625 123.507812 L 200.964844 123.507812 C 200.039062 123.578125 198.980469 123.707031 197.792969 123.90625 L 197.792969 127.171875 L 200.957031 127.171875 L 200.957031 129.847656 L 197.78125 129.847656 L 197.78125 132.523438 L 198.570312 131.632812 C 198.898438 131.902344 199.457031 132.324219 200.257812 132.921875 C 200.984375 133.519531 201.515625 133.949219 201.84375 134.210938 L 199.96875 136.285156 C 199.109375 135.425781 198.378906 134.769531 197.792969 134.300781 L 197.792969 143.714844 L 195.007812 143.714844 L 195.007812 134.507812 C 194.207031 136.425781 193.25 138.171875 192.132812 139.761719 L 191.242188 136.484375 C 192.558594 134.699219 193.71875 132.480469 194.714844 129.847656 L 191.441406 129.847656 L 191.441406 127.171875 L 195.007812 127.171875 L 195.007812 124.097656 C 194.148438 124.226562 193.148438 124.296875 192.03125 124.296875 " clip-rule="nonzero"/></clipPath><clipPath id="302130e21e"><path d="M 0.242188 0.234375 L 24.375 0.234375 L 24.375 23.722656 L 0.242188 23.722656 Z M 0.242188 0.234375 " clip-rule="nonzero"/></clipPath><clipPath id="6a4d51f344"><path d="M 15.707031 7.871094 C 15.105469 7.269531 14.089844 6.351562 12.632812 5.09375 C 12.101562 4.695312 11.703125 4.367188 11.445312 4.105469 L 13.128906 2.21875 C 14.976562 3.675781 16.503906 4.867188 17.691406 5.792969 Z M 14.617188 13.808594 C 13.828125 13.152344 12.632812 12.191406 11.054688 10.933594 C 10.792969 10.675781 10.554688 10.476562 10.355469 10.335938 L 12.140625 8.449219 C 12.472656 8.707031 12.972656 9.078125 13.628906 9.539062 C 14.746094 10.394531 15.714844 11.125 16.503906 11.722656 Z M 9.757812 18.671875 L 9.457031 15.894531 L 18.183594 15.109375 L 18.183594 0.234375 L 21.15625 0.234375 L 21.15625 14.796875 L 24.230469 14.5 L 24.332031 17.375 L 21.15625 17.574219 L 21.15625 23.722656 L 18.183594 23.722656 L 18.183594 17.875 Z M 1.03125 4.296875 C 0.972656 3.378906 0.839844 2.480469 0.640625 1.621094 C 3.085938 1.5625 6.09375 1.320312 9.667969 0.933594 L 10.265625 3.507812 L 9.964844 3.507812 C 9.039062 3.578125 7.980469 3.707031 6.792969 3.90625 L 6.792969 7.171875 L 9.957031 7.171875 L 9.957031 9.847656 L 6.78125 9.847656 L 6.78125 12.523438 L 7.570312 11.632812 C 7.898438 11.902344 8.457031 12.324219 9.257812 12.921875 C 9.984375 13.519531 10.515625 13.949219 10.84375 14.210938 L 8.96875 16.285156 C 8.109375 15.425781 7.378906 14.769531 6.792969 14.300781 L 6.792969 23.714844 L 4.007812 23.714844 L 4.007812 14.507812 C 3.207031 16.425781 2.25 18.171875 1.132812 19.761719 L 0.242188 16.484375 C 1.558594 14.699219 2.71875 12.480469 3.714844 9.847656 L 0.441406 9.847656 L 0.441406 7.171875 L 4.007812 7.171875 L 4.007812 4.097656 C 3.148438 4.226562 2.148438 4.296875 1.03125 4.296875 " clip-rule="nonzero"/></clipPath><clipPath id="928a8e7fea"><rect x="0" width="25" y="0" height="24"/></clipPath><clipPath id="6e81b6cbb4"><path d="M 231.917969 120.132812 L 256.074219 120.132812 L 256.074219 143.921875 L 231.917969 143.921875 Z M 231.917969 120.132812 " clip-rule="nonzero"/></clipPath><clipPath id="31382779a9"><path d="M 251.542969 131.925781 L 244.304688 131.925781 C 245.292969 133.839844 246.480469 135.496094 247.867188 136.886719 C 249.457031 135.496094 250.671875 133.851562 251.53125 131.925781 M 240.839844 126.273438 L 240.839844 123.597656 L 246.390625 123.597656 L 246.390625 120.132812 L 249.367188 120.132812 L 249.367188 123.597656 L 255.613281 123.597656 L 255.613281 126.273438 L 249.367188 126.273438 L 249.367188 129.347656 L 254.617188 129.347656 L 254.617188 132.023438 C 253.359375 134.867188 251.871094 137.046875 250.15625 138.5625 C 251.742188 139.550781 253.6875 140.347656 256.003906 140.9375 C 255.875 141.199219 255.644531 141.667969 255.304688 142.328125 C 254.976562 142.925781 254.707031 143.382812 254.515625 143.714844 C 251.871094 142.65625 249.664062 141.566406 247.878906 140.4375 C 246.160156 141.496094 243.6875 142.65625 240.441406 143.902344 C 239.980469 143.046875 239.453125 142.148438 238.855469 141.226562 C 241.628906 140.4375 243.875 139.539062 245.59375 138.550781 C 244.074219 136.90625 242.71875 134.847656 241.53125 132.402344 L 242.71875 131.902344 L 241.039062 131.902344 L 241.039062 129.347656 L 246.390625 129.347656 L 246.390625 126.273438 Z M 232.214844 127.074219 L 232.214844 124.398438 L 234.890625 124.398438 L 234.890625 120.234375 L 237.765625 120.234375 L 237.765625 124.398438 L 240.042969 124.398438 L 240.042969 127.074219 L 237.765625 127.074219 L 237.765625 131.136719 L 240.140625 130.636719 C 240.140625 131.625 240.171875 132.582031 240.242188 133.511719 C 239.453125 133.640625 238.625 133.8125 237.765625 134.011719 L 237.765625 140.648438 C 237.835938 142.496094 236.96875 143.453125 235.191406 143.523438 C 234.332031 143.585938 233.503906 143.625 232.714844 143.625 C 232.644531 143.226562 232.546875 142.636719 232.414062 141.835938 C 232.285156 141.378906 232.214844 141.078125 232.214844 140.949219 L 233.902344 140.949219 C 234.632812 140.949219 234.960938 140.550781 234.890625 139.761719 L 234.890625 134.699219 L 232.117188 135.398438 L 231.917969 132.222656 C 232.375 132.164062 233.175781 132.023438 234.292969 131.824219 C 234.550781 131.765625 234.75 131.722656 234.890625 131.722656 L 234.890625 127.074219 Z M 232.214844 127.074219 " clip-rule="nonzero"/></clipPath><clipPath id="c09ee64b41"><path d="M 0.917969 0.132812 L 25 0.132812 L 25 23.921875 L 0.917969 23.921875 Z M 0.917969 0.132812 " clip-rule="nonzero"/></clipPath><clipPath id="39cf44c339"><path d="M 20.542969 11.925781 L 13.304688 11.925781 C 14.292969 13.839844 15.480469 15.496094 16.867188 16.886719 C 18.457031 15.496094 19.671875 13.851562 20.53125 11.925781 M 9.839844 6.273438 L 9.839844 3.597656 L 15.390625 3.597656 L 15.390625 0.132812 L 18.367188 0.132812 L 18.367188 3.597656 L 24.613281 3.597656 L 24.613281 6.273438 L 18.367188 6.273438 L 18.367188 9.347656 L 23.617188 9.347656 L 23.617188 12.023438 C 22.359375 14.867188 20.871094 17.046875 19.15625 18.5625 C 20.742188 19.550781 22.6875 20.347656 25.003906 20.9375 C 24.875 21.199219 24.644531 21.667969 24.304688 22.328125 C 23.976562 22.925781 23.707031 23.382812 23.515625 23.714844 C 20.871094 22.65625 18.664062 21.566406 16.878906 20.4375 C 15.160156 21.496094 12.6875 22.65625 9.441406 23.902344 C 8.980469 23.046875 8.453125 22.148438 7.855469 21.226562 C 10.628906 20.4375 12.875 19.539062 14.59375 18.550781 C 13.074219 16.90625 11.71875 14.847656 10.53125 12.402344 L 11.71875 11.902344 L 10.039062 11.902344 L 10.039062 9.347656 L 15.390625 9.347656 L 15.390625 6.273438 Z M 1.214844 7.074219 L 1.214844 4.398438 L 3.890625 4.398438 L 3.890625 0.234375 L 6.765625 0.234375 L 6.765625 4.398438 L 9.042969 4.398438 L 9.042969 7.074219 L 6.765625 7.074219 L 6.765625 11.136719 L 9.140625 10.636719 C 9.140625 11.625 9.171875 12.582031 9.242188 13.511719 C 8.453125 13.640625 7.625 13.8125 6.765625 14.011719 L 6.765625 20.648438 C 6.835938 22.496094 5.96875 23.453125 4.191406 23.523438 C 3.332031 23.585938 2.503906 23.625 1.714844 23.625 C 1.644531 23.226562 1.546875 22.636719 1.414062 21.835938 C 1.285156 21.378906 1.214844 21.078125 1.214844 20.949219 L 2.902344 20.949219 C 3.632812 20.949219 3.960938 20.550781 3.890625 19.761719 L 3.890625 14.699219 L 1.117188 15.398438 L 0.917969 12.222656 C 1.375 12.164062 2.175781 12.023438 3.292969 11.824219 C 3.550781 11.765625 3.75 11.722656 3.890625 11.722656 L 3.890625 7.074219 Z M 1.214844 7.074219 " clip-rule="nonzero"/></clipPath><clipPath id="0404ae579c"><rect x="0" width="26" y="0" height="24"/></clipPath><clipPath id="02caa3e5b4"><path d="M 272.394531 121.027344 L 296.792969 121.027344 L 296.792969 143.910156 L 272.394531 143.910156 Z M 272.394531 121.027344 " clip-rule="nonzero"/></clipPath><clipPath id="50c4b00911"><path d="M 292.320312 133.113281 L 286.167969 133.113281 C 287.15625 134.902344 288.1875 136.320312 289.242188 137.378906 C 290.300781 136.390625 291.320312 134.960938 292.320312 133.113281 M 284.09375 130.148438 C 283.492188 129.550781 282.835938 128.890625 282.105469 128.164062 C 284.09375 127.175781 284.980469 125.6875 284.78125 123.699219 L 284.78125 121.125 L 293.804688 121.125 L 293.804688 125.289062 C 293.734375 126.214844 294.136719 126.644531 294.992188 126.574219 L 296.679688 126.574219 C 296.609375 127.503906 296.480469 128.363281 296.28125 129.152344 L 293.804688 129.152344 C 292.019531 129.222656 291.128906 128.292969 291.128906 126.375 L 291.128906 123.699219 L 287.457031 123.699219 L 287.457031 124.289062 C 287.65625 126.734375 286.527344 128.683594 284.082031 130.140625 M 276.554688 132.527344 L 276.554688 133.714844 L 279.332031 133.714844 L 279.332031 129.75 L 276.554688 129.75 Z M 276.554688 127.375 L 279.332031 127.375 L 279.332031 123.5 L 276.554688 123.5 Z M 295.292969 143.625 C 292.847656 142.769531 290.832031 141.878906 289.242188 140.949219 C 287.457031 142.070312 285.378906 143.039062 282.996094 143.824219 C 282.863281 143.554688 282.636719 143.136719 282.304688 142.539062 C 282.105469 142.078125 281.945312 141.75 281.808594 141.550781 C 281.605469 142.667969 280.847656 143.265625 279.53125 143.335938 C 279.261719 143.398438 278.84375 143.4375 278.242188 143.4375 C 277.714844 143.496094 277.285156 143.535156 276.957031 143.535156 C 276.824219 142.609375 276.65625 141.75 276.457031 140.960938 L 278.144531 140.960938 C 279 140.960938 279.402344 140.53125 279.332031 139.671875 L 279.332031 136.089844 L 276.457031 136.089844 C 276.457031 138.863281 275.796875 141.441406 274.46875 143.816406 C 273.679688 143.027344 272.992188 142.339844 272.394531 141.738281 C 273.050781 140.550781 273.480469 139.292969 273.679688 137.976562 C 273.878906 136.660156 273.980469 134.402344 273.980469 131.238281 L 273.980469 121.027344 L 281.90625 121.027344 L 281.90625 141.152344 C 283.953125 140.550781 285.671875 139.863281 287.058594 139.074219 C 285.730469 137.6875 284.613281 136 283.683594 134.023438 L 285.371094 133.132812 L 283.195312 133.132812 L 283.195312 130.539062 L 295.394531 130.539062 L 295.394531 133.214844 C 294.136719 135.730469 292.816406 137.675781 291.429688 139.0625 C 292.816406 139.921875 294.605469 140.550781 296.78125 140.949219 C 296.382812 141.550781 295.890625 142.4375 295.292969 143.625 " clip-rule="nonzero"/></clipPath><clipPath id="807cd0fb13"><path d="M 0.394531 0.0273438 L 24.792969 0.0273438 L 24.792969 22.910156 L 0.394531 22.910156 Z M 0.394531 0.0273438 " clip-rule="nonzero"/></clipPath><clipPath id="1add3d2df3"><path d="M 20.320312 12.113281 L 14.167969 12.113281 C 15.15625 13.902344 16.1875 15.320312 17.242188 16.378906 C 18.300781 15.390625 19.320312 13.960938 20.320312 12.113281 M 12.09375 9.148438 C 11.492188 8.550781 10.835938 7.890625 10.105469 7.164062 C 12.09375 6.175781 12.980469 4.6875 12.78125 2.699219 L 12.78125 0.125 L 21.804688 0.125 L 21.804688 4.289062 C 21.734375 5.214844 22.136719 5.644531 22.992188 5.574219 L 24.679688 5.574219 C 24.609375 6.503906 24.480469 7.363281 24.28125 8.152344 L 21.804688 8.152344 C 20.019531 8.222656 19.128906 7.292969 19.128906 5.375 L 19.128906 2.699219 L 15.457031 2.699219 L 15.457031 3.289062 C 15.65625 5.734375 14.527344 7.683594 12.082031 9.140625 M 4.554688 11.527344 L 4.554688 12.714844 L 7.332031 12.714844 L 7.332031 8.75 L 4.554688 8.75 Z M 4.554688 6.375 L 7.332031 6.375 L 7.332031 2.5 L 4.554688 2.5 Z M 23.292969 22.625 C 20.847656 21.769531 18.832031 20.878906 17.242188 19.949219 C 15.457031 21.070312 13.378906 22.039062 10.996094 22.824219 C 10.863281 22.554688 10.636719 22.136719 10.304688 21.539062 C 10.105469 21.078125 9.945312 20.75 9.808594 20.550781 C 9.605469 21.667969 8.847656 22.265625 7.53125 22.335938 C 7.261719 22.398438 6.84375 22.4375 6.242188 22.4375 C 5.714844 22.496094 5.285156 22.535156 4.957031 22.535156 C 4.824219 21.609375 4.65625 20.75 4.457031 19.960938 L 6.144531 19.960938 C 7 19.960938 7.402344 19.53125 7.332031 18.671875 L 7.332031 15.089844 L 4.457031 15.089844 C 4.457031 17.863281 3.796875 20.441406 2.46875 22.816406 C 1.679688 22.027344 0.992188 21.339844 0.394531 20.738281 C 1.050781 19.550781 1.480469 18.292969 1.679688 16.976562 C 1.878906 15.660156 1.980469 13.402344 1.980469 10.238281 L 1.980469 0.0273438 L 9.90625 0.0273438 L 9.90625 20.152344 C 11.953125 19.550781 13.671875 18.863281 15.058594 18.074219 C 13.730469 16.6875 12.613281 15 11.683594 13.023438 L 13.371094 12.132812 L 11.195312 12.132812 L 11.195312 9.539062 L 23.394531 9.539062 L 23.394531 12.214844 C 22.136719 14.730469 20.816406 16.675781 19.429688 18.0625 C 20.816406 18.921875 22.605469 19.550781 24.78125 19.949219 C 24.382812 20.550781 23.890625 21.4375 23.292969 22.625 " clip-rule="nonzero"/></clipPath><clipPath id="7cc0a7ca06"><rect x="0" width="25" y="0" height="23"/></clipPath><clipPath id="b6b50aa408"><path d="M 313.265625 120.234375 L 337.410156 120.234375 L 337.410156 143.824219 L 313.265625 143.824219 Z M 313.265625 120.234375 " clip-rule="nonzero"/></clipPath><clipPath id="8e0332d988"><path d="M 326.941406 143.421875 C 326.742188 142.433594 326.511719 141.503906 326.242188 140.648438 C 327.363281 140.71875 328.328125 140.746094 329.117188 140.746094 C 330.507812 140.816406 331.195312 140.148438 331.195312 138.761719 C 331.324219 136.644531 331.394531 134.667969 331.394531 132.8125 L 327.140625 132.8125 C 327.210938 137.503906 325.425781 141.167969 321.792969 143.8125 C 321.132812 143.023438 320.402344 142.292969 319.613281 141.636719 C 322.789062 139.71875 324.308594 136.773438 324.175781 132.8125 L 322.390625 132.8125 L 322.390625 130.746094 C 321.929688 131.203125 321.433594 131.703125 320.902344 132.230469 C 320.574219 131.503906 320.113281 130.585938 319.515625 129.457031 C 321.949219 127.140625 323.808594 124.265625 325.066406 120.832031 L 327.839844 121.71875 C 326.644531 124.894531 324.996094 127.699219 322.878906 130.144531 L 334.378906 130.144531 C 331.933594 127.96875 330.117188 125.023438 328.929688 121.320312 L 331.605469 120.433594 C 332.863281 124.066406 334.777344 126.8125 337.355469 128.65625 L 336.367188 131.832031 C 336.035156 131.632812 335.609375 131.273438 335.078125 130.746094 C 334.820312 130.542969 334.621094 130.386719 334.480469 130.246094 C 334.351562 134.476562 334.25 137.542969 334.179688 139.460938 C 334.179688 141.964844 332.890625 143.261719 330.316406 143.324219 C 329.585938 143.382812 328.46875 143.421875 326.941406 143.421875 M 313.863281 134.808594 C 313.664062 133.28125 313.464844 131.933594 313.265625 130.746094 C 315.3125 127.570312 316.941406 124.066406 318.128906 120.234375 L 321.09375 120.921875 C 320.433594 122.847656 319.675781 124.695312 318.816406 126.480469 L 318.816406 143.722656 L 315.941406 143.722656 L 315.941406 131.734375 C 315.34375 132.722656 314.652344 133.75 313.863281 134.808594 " clip-rule="nonzero"/></clipPath><clipPath id="cdc13411c7"><path d="M 0.265625 0.234375 L 24.40625 0.234375 L 24.40625 23.824219 L 0.265625 23.824219 Z M 0.265625 0.234375 " clip-rule="nonzero"/></clipPath><clipPath id="6e028c9391"><path d="M 13.941406 23.421875 C 13.742188 22.433594 13.511719 21.503906 13.242188 20.648438 C 14.363281 20.71875 15.328125 20.746094 16.117188 20.746094 C 17.507812 20.816406 18.195312 20.148438 18.195312 18.761719 C 18.324219 16.644531 18.394531 14.667969 18.394531 12.8125 L 14.140625 12.8125 C 14.210938 17.503906 12.425781 21.167969 8.792969 23.8125 C 8.132812 23.023438 7.402344 22.292969 6.613281 21.636719 C 9.789062 19.71875 11.308594 16.773438 11.175781 12.8125 L 9.390625 12.8125 L 9.390625 10.746094 C 8.929688 11.203125 8.433594 11.703125 7.902344 12.230469 C 7.574219 11.503906 7.113281 10.585938 6.515625 9.457031 C 8.949219 7.140625 10.808594 4.265625 12.066406 0.832031 L 14.839844 1.71875 C 13.644531 4.894531 11.996094 7.699219 9.878906 10.144531 L 21.378906 10.144531 C 18.933594 7.96875 17.117188 5.023438 15.929688 1.320312 L 18.605469 0.433594 C 19.863281 4.066406 21.777344 6.8125 24.355469 8.65625 L 23.367188 11.832031 C 23.035156 11.632812 22.609375 11.273438 22.078125 10.746094 C 21.820312 10.542969 21.621094 10.386719 21.480469 10.246094 C 21.351562 14.476562 21.25 17.542969 21.179688 19.460938 C 21.179688 21.964844 19.890625 23.261719 17.316406 23.324219 C 16.585938 23.382812 15.46875 23.421875 13.941406 23.421875 M 0.863281 14.808594 C 0.664062 13.28125 0.464844 11.933594 0.265625 10.746094 C 2.3125 7.570312 3.941406 4.066406 5.128906 0.234375 L 8.09375 0.921875 C 7.433594 2.847656 6.675781 4.695312 5.816406 6.480469 L 5.816406 23.722656 L 2.941406 23.722656 L 2.941406 11.734375 C 2.34375 12.722656 1.652344 13.75 0.863281 14.808594 " clip-rule="nonzero"/></clipPath><clipPath id="23e37fa099"><rect x="0" width="25" y="0" height="24"/></clipPath><clipPath id="6de6f5c574"><path d="M 353.941406 120.035156 L 377.910156 120.035156 L 377.910156 143.722656 L 353.941406 143.722656 Z M 353.941406 120.035156 " clip-rule="nonzero"/></clipPath><clipPath id="22d4d496b4"><path d="M 361.378906 136.386719 L 372.378906 136.386719 L 372.378906 134.308594 L 361.378906 134.308594 Z M 361.378906 132.023438 L 372.378906 132.023438 L 372.378906 129.949219 L 361.378906 129.949219 Z M 354.539062 125.484375 L 354.539062 122.710938 L 361.769531 122.710938 C 362.167969 121.910156 362.566406 121.023438 362.957031 120.035156 L 366.230469 120.335938 C 366.160156 120.402344 366.101562 120.535156 366.03125 120.734375 C 365.703125 121.660156 365.433594 122.320312 365.242188 122.71875 L 377.832031 122.71875 L 377.832031 125.484375 L 363.855469 125.484375 C 363.726562 125.683594 363.523438 126.015625 363.253906 126.472656 C 362.984375 126.871094 362.796875 127.203125 362.65625 127.460938 L 375.453125 127.460938 L 375.453125 140.25 C 375.585938 142.425781 374.425781 143.523438 371.980469 143.523438 L 367.917969 143.523438 C 367.71875 142.664062 367.488281 141.808594 367.21875 140.949219 L 370.59375 140.949219 C 371.910156 141.078125 372.507812 140.589844 372.378906 139.460938 L 372.378906 138.773438 L 361.378906 138.773438 L 361.378906 143.722656 L 358.304688 143.722656 L 358.304688 133.121094 C 357.316406 134.109375 356.257812 135.109375 355.128906 136.097656 C 354.929688 135.636719 354.601562 134.808594 354.140625 133.621094 C 354.070312 133.363281 354.011719 133.164062 353.941406 133.03125 C 356.71875 130.714844 358.863281 128.210938 360.378906 125.496094 Z M 354.539062 125.484375 " clip-rule="nonzero"/></clipPath><clipPath id="11f5f948e0"><path d="M 0.941406 0.0351562 L 24.898438 0.0351562 L 24.898438 23.722656 L 0.941406 23.722656 Z M 0.941406 0.0351562 " clip-rule="nonzero"/></clipPath><clipPath id="b819f68369"><path d="M 8.378906 16.386719 L 19.378906 16.386719 L 19.378906 14.308594 L 8.378906 14.308594 Z M 8.378906 12.023438 L 19.378906 12.023438 L 19.378906 9.949219 L 8.378906 9.949219 Z M 1.539062 5.484375 L 1.539062 2.710938 L 8.769531 2.710938 C 9.167969 1.910156 9.566406 1.023438 9.957031 0.0351562 L 13.230469 0.335938 C 13.160156 0.402344 13.101562 0.535156 13.03125 0.734375 C 12.703125 1.660156 12.433594 2.320312 12.242188 2.71875 L 24.832031 2.71875 L 24.832031 5.484375 L 10.855469 5.484375 C 10.726562 5.683594 10.523438 6.015625 10.253906 6.472656 C 9.984375 6.871094 9.796875 7.203125 9.65625 7.460938 L 22.453125 7.460938 L 22.453125 20.25 C 22.585938 22.425781 21.425781 23.523438 18.980469 23.523438 L 14.917969 23.523438 C 14.71875 22.664062 14.488281 21.808594 14.21875 20.949219 L 17.59375 20.949219 C 18.910156 21.078125 19.507812 20.589844 19.378906 19.460938 L 19.378906 18.773438 L 8.378906 18.773438 L 8.378906 23.722656 L 5.304688 23.722656 L 5.304688 13.121094 C 4.316406 14.109375 3.257812 15.109375 2.128906 16.097656 C 1.929688 15.636719 1.601562 14.808594 1.140625 13.621094 C 1.070312 13.363281 1.011719 13.164062 0.941406 13.03125 C 3.71875 10.714844 5.863281 8.210938 7.378906 5.496094 Z M 1.539062 5.484375 " clip-rule="nonzero"/></clipPath><clipPath id="6ee3d30eb4"><rect x="0" width="25" y="0" height="24"/></clipPath><clipPath id="b604a9f6f8"><path d="M 395.609375 121.125 L 418.839844 121.125 L 418.839844 143.910156 L 395.609375 143.910156 Z M 395.609375 121.125 " clip-rule="nonzero"/></clipPath><clipPath id="fd3e947f6a"><path d="M 407.296875 131.039062 L 414.238281 131.039062 L 414.238281 128.5625 L 407.296875 128.5625 Z M 407.296875 126.175781 L 414.238281 126.175781 L 414.238281 123.800781 L 407.296875 123.800781 Z M 417.3125 143.425781 C 412.820312 141.507812 410.015625 138.234375 408.886719 133.613281 L 407.296875 133.613281 L 407.296875 140.25 C 407.828125 140.050781 408.6875 139.753906 409.875 139.363281 C 410.402344 139.164062 410.832031 139.003906 411.160156 138.863281 C 411.09375 139.394531 411.09375 140.050781 411.160156 140.851562 L 411.160156 141.539062 C 409.902344 141.9375 408.546875 142.398438 407.097656 142.925781 C 406.242188 143.257812 405.613281 143.554688 405.210938 143.816406 L 403.835938 141.539062 C 404.433594 141.082031 404.691406 140.421875 404.625 139.554688 L 404.625 121.125 L 416.921875 121.125 L 416.921875 133.613281 L 411.5625 133.613281 C 411.960938 134.800781 412.417969 135.800781 412.949219 136.589844 C 414.335938 135.660156 415.59375 134.769531 416.710938 133.914062 L 418.398438 135.988281 C 417.941406 136.257812 417.269531 136.648438 416.414062 137.175781 C 415.554688 137.707031 414.894531 138.105469 414.425781 138.363281 C 415.484375 139.292969 416.933594 140.152344 418.789062 140.941406 C 418.660156 141.199219 418.429688 141.597656 418.089844 142.128906 C 417.761719 142.71875 417.492188 143.15625 417.300781 143.417969 M 398.183594 123.800781 L 398.183594 137.476562 C 398.644531 137.546875 399.101562 137.578125 399.570312 137.578125 C 400.5 137.515625 400.929688 136.816406 400.859375 135.5 C 400.859375 133.914062 400.261719 132.296875 399.074219 130.636719 L 400.859375 123.800781 Z M 395.609375 143.824219 L 395.609375 121.125 L 403.335938 121.125 L 403.335938 123.800781 L 401.558594 130.238281 C 402.875 131.957031 403.503906 133.902344 403.445312 136.089844 C 403.503906 138.734375 402.515625 140.152344 400.46875 140.351562 C 400.011719 140.410156 399.511719 140.453125 398.984375 140.453125 C 398.914062 140.050781 398.753906 139.464844 398.484375 138.664062 C 398.34375 138.265625 398.253906 137.964844 398.183594 137.777344 L 398.183594 143.824219 Z M 395.609375 143.824219 " clip-rule="nonzero"/></clipPath><clipPath id="dac95a7866"><path d="M 0.609375 0.125 L 23.839844 0.125 L 23.839844 22.910156 L 0.609375 22.910156 Z M 0.609375 0.125 " clip-rule="nonzero"/></clipPath><clipPath id="b223c9ca77"><path d="M 12.296875 10.039062 L 19.238281 10.039062 L 19.238281 7.5625 L 12.296875 7.5625 Z M 12.296875 5.175781 L 19.238281 5.175781 L 19.238281 2.800781 L 12.296875 2.800781 Z M 22.3125 22.425781 C 17.820312 20.507812 15.015625 17.234375 13.886719 12.613281 L 12.296875 12.613281 L 12.296875 19.25 C 12.828125 19.050781 13.6875 18.753906 14.875 18.363281 C 15.402344 18.164062 15.832031 18.003906 16.160156 17.863281 C 16.09375 18.394531 16.09375 19.050781 16.160156 19.851562 L 16.160156 20.539062 C 14.902344 20.9375 13.546875 21.398438 12.097656 21.925781 C 11.242188 22.257812 10.613281 22.554688 10.210938 22.816406 L 8.835938 20.539062 C 9.433594 20.082031 9.691406 19.421875 9.625 18.554688 L 9.625 0.125 L 21.921875 0.125 L 21.921875 12.613281 L 16.5625 12.613281 C 16.960938 13.800781 17.417969 14.800781 17.949219 15.589844 C 19.335938 14.660156 20.59375 13.769531 21.710938 12.914062 L 23.398438 14.988281 C 22.941406 15.257812 22.269531 15.648438 21.414062 16.175781 C 20.554688 16.707031 19.894531 17.105469 19.425781 17.363281 C 20.484375 18.292969 21.933594 19.152344 23.789062 19.941406 C 23.660156 20.199219 23.429688 20.597656 23.089844 21.128906 C 22.761719 21.71875 22.492188 22.15625 22.300781 22.417969 M 3.183594 2.800781 L 3.183594 16.476562 C 3.644531 16.546875 4.101562 16.578125 4.570312 16.578125 C 5.5 16.515625 5.929688 15.816406 5.859375 14.5 C 5.859375 12.914062 5.261719 11.296875 4.074219 9.636719 L 5.859375 2.800781 Z M 0.609375 22.824219 L 0.609375 0.125 L 8.335938 0.125 L 8.335938 2.800781 L 6.558594 9.238281 C 7.875 10.957031 8.503906 12.902344 8.445312 15.089844 C 8.503906 17.734375 7.515625 19.152344 5.46875 19.351562 C 5.011719 19.410156 4.511719 19.453125 3.984375 19.453125 C 3.914062 19.050781 3.753906 18.464844 3.484375 17.664062 C 3.34375 17.265625 3.253906 16.964844 3.183594 16.777344 L 3.183594 22.824219 Z M 0.609375 22.824219 " clip-rule="nonzero"/></clipPath><clipPath id="beabf94cba"><rect x="0" width="24" y="0" height="23"/></clipPath><clipPath id="004e38b00c"><path d="M 435.191406 120.53125 L 459.578125 120.53125 L 459.578125 143.824219 L 435.191406 143.824219 Z M 435.191406 120.53125 " clip-rule="nonzero"/></clipPath><clipPath id="81549bdb76"><path d="M 457.691406 132.71875 C 453.53125 129.945312 450.554688 126.210938 448.769531 121.519531 L 451.542969 120.53125 C 453.191406 124.695312 455.867188 127.796875 459.570312 129.84375 C 459.242188 130.242188 458.8125 130.871094 458.28125 131.730469 C 458.011719 132.191406 457.824219 132.519531 457.683594 132.71875 M 455.507812 143.820312 L 454.019531 141.742188 C 452.101562 141.875 449.257812 142.042969 445.496094 142.242188 C 443.578125 142.3125 442.21875 142.371094 441.429688 142.441406 C 440.304688 142.511719 439.34375 142.640625 438.554688 142.84375 L 437.179688 140.15625 C 437.96875 139.699219 438.726562 139.070312 439.453125 138.28125 C 442.101562 135.175781 444.214844 132.070312 445.792969 128.964844 L 448.867188 130.445312 C 446.882812 133.347656 444.574219 136.453125 441.929688 139.757812 L 452.042969 139.359375 C 451.84375 139.097656 451.582031 138.730469 451.246094 138.269531 C 450.1875 136.753906 449.359375 135.65625 448.769531 134.996094 L 451.042969 133.410156 C 452.03125 134.597656 453.589844 136.511719 455.707031 139.160156 C 456.824219 140.484375 457.652344 141.472656 458.183594 142.132812 Z M 437.179688 133.019531 L 435.191406 130.445312 C 438.625 127.996094 441.242188 124.792969 443.019531 120.828125 L 445.992188 122.019531 C 443.816406 126.3125 440.871094 129.984375 437.179688 133.019531 " clip-rule="nonzero"/></clipPath><clipPath id="fafcd40bc9"><path d="M 0.191406 0.53125 L 24.578125 0.53125 L 24.578125 23.824219 L 0.191406 23.824219 Z M 0.191406 0.53125 " clip-rule="nonzero"/></clipPath><clipPath id="b8cf7fcbfe"><path d="M 22.691406 12.71875 C 18.53125 9.945312 15.554688 6.210938 13.769531 1.519531 L 16.542969 0.53125 C 18.191406 4.695312 20.867188 7.796875 24.570312 9.84375 C 24.242188 10.242188 23.8125 10.871094 23.28125 11.730469 C 23.011719 12.191406 22.824219 12.519531 22.683594 12.71875 M 20.507812 23.820312 L 19.019531 21.742188 C 17.101562 21.875 14.257812 22.042969 10.496094 22.242188 C 8.578125 22.3125 7.21875 22.371094 6.429688 22.441406 C 5.304688 22.511719 4.34375 22.640625 3.554688 22.84375 L 2.179688 20.15625 C 2.96875 19.699219 3.726562 19.070312 4.453125 18.28125 C 7.101562 15.175781 9.214844 12.070312 10.792969 8.964844 L 13.867188 10.445312 C 11.882812 13.347656 9.574219 16.453125 6.929688 19.757812 L 17.042969 19.359375 C 16.84375 19.097656 16.582031 18.730469 16.246094 18.269531 C 15.1875 16.753906 14.359375 15.65625 13.769531 14.996094 L 16.042969 13.410156 C 17.03125 14.597656 18.589844 16.511719 20.707031 19.160156 C 21.824219 20.484375 22.652344 21.472656 23.183594 22.132812 Z M 2.179688 13.019531 L 0.191406 10.445312 C 3.625 7.996094 6.242188 4.792969 8.019531 0.828125 L 10.992188 2.019531 C 8.816406 6.3125 5.871094 9.984375 2.179688 13.019531 " clip-rule="nonzero"/></clipPath><clipPath id="f4b29bab68"><rect x="0" width="25" y="0" height="24"/></clipPath><clipPath id="934900f8b5"><path d="M 110 17 L 159.90625 17 L 159.90625 85.550781 L 110 85.550781 Z M 110 17 " clip-rule="nonzero"/></clipPath><clipPath id="aab869efdd"><path d="M 124.492188 26.796875 L 136.878906 26.796875 C 143.917969 26.796875 147.0625 29.429688 147.0625 35.332031 C 147.0625 44.136719 139.125 47.261719 132.328125 47.261719 C 130.570312 47.261719 128.664062 47.050781 126.328125 46.613281 L 123.714844 46.113281 C 123.933594 39.992188 124.191406 33.585938 124.492188 26.796875 M 159.292969 34.453125 C 159.292969 23.480469 151.964844 17.183594 139.207031 17.183594 L 112.832031 17.183594 L 112.820312 18.828125 C 112.722656 44.195312 111.703125 62.984375 110.207031 83.40625 L 110.078125 85.175781 L 122.804688 85.175781 L 122.824219 83.539062 C 122.933594 72.355469 123.214844 60.597656 123.671875 47.480469 L 124.601562 49.058594 C 126.769531 52.742188 129.035156 56.445312 131.238281 60.027344 L 131.328125 60.167969 C 136.101562 67.933594 141.03125 75.972656 145.105469 84.246094 L 145.554688 85.175781 L 159.679688 85.175781 L 140.054688 54.417969 C 151.613281 53.019531 159.292969 45.125 159.292969 34.453125 " clip-rule="nonzero"/></clipPath><clipPath id="3cb942c5d0"><path d="M 0.0390625 0.0117188 L 49.875 0.0117188 L 49.875 68.292969 L 0.0390625 68.292969 Z M 0.0390625 0.0117188 " clip-rule="nonzero"/></clipPath><clipPath id="d8c343ed7d"><path d="M 14.492188 9.796875 L 26.878906 9.796875 C 33.917969 9.796875 37.0625 12.429688 37.0625 18.332031 C 37.0625 27.136719 29.125 30.261719 22.328125 30.261719 C 20.570312 30.261719 18.664062 30.050781 16.328125 29.613281 L 13.714844 29.113281 C 13.933594 22.992188 14.191406 16.585938 14.492188 9.796875 M 49.292969 17.453125 C 49.292969 6.480469 41.964844 0.183594 29.207031 0.183594 L 2.832031 0.183594 L 2.820312 1.828125 C 2.722656 27.195312 1.703125 45.984375 0.207031 66.40625 L 0.078125 68.175781 L 12.804688 68.175781 L 12.824219 66.539062 C 12.933594 55.355469 13.214844 43.597656 13.671875 30.480469 L 14.601562 32.058594 C 16.769531 35.742188 19.035156 39.445312 21.238281 43.027344 L 21.328125 43.167969 C 26.101562 50.933594 31.03125 58.972656 35.105469 67.246094 L 35.554688 68.175781 L 49.679688 68.175781 L 30.054688 37.417969 C 41.613281 36.019531 49.292969 28.125 49.292969 17.453125 " clip-rule="nonzero"/></clipPath><clipPath id="a8a655769f"><rect x="0" width="50" y="0" height="69"/></clipPath><clipPath id="edf7e3284c"><path d="M 160.695312 32.699219 L 207.628906 32.699219 L 207.628906 86.335938 L 160.695312 86.335938 Z M 160.695312 32.699219 " clip-rule="nonzero"/></clipPath><clipPath id="148b7082f7"><path d="M 187.601562 32.796875 C 181.851562 32.796875 175.851562 33.632812 169.246094 35.371094 L 168.175781 35.652344 L 166.75 45.953125 L 169.445312 44.792969 C 175.054688 42.367188 180.804688 41.140625 186.535156 41.140625 C 190.078125 41.140625 196.039062 41.820312 196.039062 46.371094 C 196.039062 50.914062 189.777344 52.421875 182.53125 54.167969 C 172.359375 56.632812 160.828125 59.410156 160.828125 71.886719 C 160.828125 81.410156 167.289062 86.242188 180.035156 86.242188 C 183.050781 86.242188 186.683594 85.832031 190.277344 85.164062 L 191.914062 75.792969 L 190.578125 76.242188 C 187.273438 77.339844 184.089844 77.898438 181.113281 77.898438 C 178.957031 77.898438 171.898438 77.457031 171.898438 71.789062 C 171.898438 66.039062 179.195312 64.011719 186.253906 62.054688 C 189.820312 61.066406 193.222656 60.128906 195.878906 58.710938 C 195.816406 59.9375 195.769531 61.1875 195.707031 62.453125 C 195.378906 69.960938 195.03125 77.71875 194.3125 83.308594 L 194.070312 85.175781 L 206.140625 85.175781 L 206.140625 83.527344 C 206.140625 77.707031 206.578125 69.324219 206.96875 61.933594 C 207.277344 56.15625 207.585938 50.183594 207.585938 46.859375 C 207.585938 40.820312 205.511719 32.796875 187.601562 32.796875 " clip-rule="nonzero"/></clipPath><clipPath id="cdcce06e35"><path d="M 0.695312 0.699219 L 47.628906 0.699219 L 47.628906 54.25 L 0.695312 54.25 Z M 0.695312 0.699219 " clip-rule="nonzero"/></clipPath><clipPath id="0fd6d31abf"><path d="M 27.601562 0.796875 C 21.851562 0.796875 15.851562 1.632812 9.246094 3.371094 L 8.175781 3.652344 L 6.75 13.953125 L 9.445312 12.792969 C 15.054688 10.367188 20.804688 9.140625 26.535156 9.140625 C 30.078125 9.140625 36.039062 9.820312 36.039062 14.371094 C 36.039062 18.914062 29.777344 20.421875 22.53125 22.167969 C 12.359375 24.632812 0.828125 27.410156 0.828125 39.886719 C 0.828125 49.410156 7.289062 54.242188 20.035156 54.242188 C 23.050781 54.242188 26.683594 53.832031 30.277344 53.164062 L 31.914062 43.792969 L 30.578125 44.242188 C 27.273438 45.339844 24.089844 45.898438 21.113281 45.898438 C 18.957031 45.898438 11.898438 45.457031 11.898438 39.789062 C 11.898438 34.039062 19.195312 32.011719 26.253906 30.054688 C 29.820312 29.066406 33.222656 28.128906 35.878906 26.710938 C 35.816406 27.9375 35.769531 29.1875 35.707031 30.453125 C 35.378906 37.960938 35.03125 45.71875 34.3125 51.308594 L 34.070312 53.175781 L 46.140625 53.175781 L 46.140625 51.527344 C 46.140625 45.707031 46.578125 37.324219 46.96875 29.933594 C 47.277344 24.15625 47.585938 18.183594 47.585938 14.859375 C 47.585938 8.820312 45.511719 0.796875 27.601562 0.796875 " clip-rule="nonzero"/></clipPath><clipPath id="bb7aefc056"><rect x="0" width="48" y="0" height="55"/></clipPath><clipPath id="7de7fddf33"><path d="M 215 17 L 230.503906 17 L 230.503906 85.550781 L 215 85.550781 Z M 215 17 " clip-rule="nonzero"/></clipPath><clipPath id="a605871899"><path d="M 218.050781 18.800781 C 217.570312 40.222656 216.59375 61.964844 215.144531 83.40625 L 215.023438 85.175781 L 227.132812 85.175781 L 227.175781 83.566406 C 227.742188 62.382812 228.433594 39.953125 229.980469 18.960938 L 230.109375 17.183594 L 218.078125 17.183594 Z M 218.050781 18.800781 " clip-rule="nonzero"/></clipPath><clipPath id="89274c4493"><path d="M 0 0.0117188 L 15.3125 0.0117188 L 15.3125 68.292969 L 0 68.292969 Z M 0 0.0117188 " clip-rule="nonzero"/></clipPath><clipPath id="8746d076ba"><path d="M 3.050781 1.800781 C 2.570312 23.222656 1.59375 44.964844 0.144531 66.40625 L 0.0234375 68.175781 L 12.132812 68.175781 L 12.175781 66.566406 C 12.742188 45.382812 13.433594 22.953125 14.980469 1.960938 L 15.109375 0.183594 L 3.078125 0.183594 Z M 3.050781 1.800781 " clip-rule="nonzero"/></clipPath><clipPath id="a99ab51a7d"><rect x="0" width="16" y="0" height="69"/></clipPath><clipPath id="554766872e"><path d="M 237 17 L 252.195312 17 L 252.195312 85.550781 L 237 85.550781 Z M 237 17 " clip-rule="nonzero"/></clipPath><clipPath id="f0b33728fc"><path d="M 240.0625 18.800781 C 239.582031 40.222656 238.605469 61.957031 237.15625 83.40625 L 237.035156 85.175781 L 249.144531 85.175781 L 249.1875 83.566406 C 249.753906 62.375 250.445312 39.921875 251.992188 18.960938 L 252.128906 17.183594 L 240.101562 17.183594 Z M 240.0625 18.800781 " clip-rule="nonzero"/></clipPath><clipPath id="b4cd41983a"><path d="M 0.0234375 0.0117188 L 15.195312 0.0117188 L 15.195312 68.292969 L 0.0234375 68.292969 Z M 0.0234375 0.0117188 " clip-rule="nonzero"/></clipPath><clipPath id="d47d0dd677"><path d="M 3.0625 1.800781 C 2.582031 23.222656 1.605469 44.957031 0.15625 66.40625 L 0.0351562 68.175781 L 12.144531 68.175781 L 12.1875 66.566406 C 12.753906 45.375 13.445312 22.921875 14.992188 1.960938 L 15.128906 0.183594 L 3.101562 0.183594 Z M 3.0625 1.800781 " clip-rule="nonzero"/></clipPath><clipPath id="a86c895fd7"><rect x="0" width="16" y="0" height="69"/></clipPath><clipPath id="205dcb3e25"><path d="M 253 33.488281 L 310.171875 33.488281 L 310.171875 108.421875 L 253 108.421875 Z M 253 33.488281 " clip-rule="nonzero"/></clipPath><clipPath id="244480ff65"><path d="M 281.800781 72.199219 C 280.300781 67.136719 278.585938 62.066406 276.90625 57.082031 C 274.503906 49.9375 272.007812 42.546875 270.121094 35.113281 L 269.800781 33.863281 L 257.261719 33.863281 L 275.289062 84.746094 C 269.890625 97.832031 266.625 98.851562 262.601562 98.851562 C 260.816406 98.851562 258.359375 98.183594 256.042969 97.074219 L 253.347656 95.777344 L 254.585938 106.757812 L 255.683594 107.046875 C 258.507812 107.777344 261.464844 108.164062 264.25 108.164062 C 276.488281 108.164062 280.210938 99.9375 283.21875 93.320312 L 310.070312 33.863281 L 297.78125 33.863281 Z M 281.800781 72.199219 " clip-rule="nonzero"/></clipPath><clipPath id="c5537a4c21"><path d="M 0.3125 0.78125 L 57.09375 0.78125 L 57.09375 75.292969 L 0.3125 75.292969 Z M 0.3125 0.78125 " clip-rule="nonzero"/></clipPath><clipPath id="eaaa79c2a8"><path d="M 28.800781 39.199219 C 27.300781 34.136719 25.585938 29.066406 23.90625 24.082031 C 21.503906 16.9375 19.007812 9.546875 17.121094 2.113281 L 16.800781 0.863281 L 4.261719 0.863281 L 22.289062 51.746094 C 16.890625 64.832031 13.625 65.851562 9.601562 65.851562 C 7.816406 65.851562 5.359375 65.183594 3.042969 64.074219 L 0.347656 62.777344 L 1.585938 73.757812 L 2.683594 74.046875 C 5.507812 74.777344 8.464844 75.164062 11.25 75.164062 C 23.488281 75.164062 27.210938 66.9375 30.21875 60.320312 L 57.070312 0.863281 L 44.78125 0.863281 Z M 28.800781 39.199219 " clip-rule="nonzero"/></clipPath><clipPath id="f083a54cf4"><rect x="0" width="58" y="0" height="76"/></clipPath><clipPath id="2e3a2163dc"><path d="M 305.4375 17 L 358.683594 17 L 358.683594 85.550781 L 305.4375 85.550781 Z M 305.4375 17 " clip-rule="nonzero"/></clipPath><clipPath id="8185a6f700"><path d="M 358.066406 27.433594 L 358.507812 17.183594 L 305.929688 17.183594 L 305.488281 27.375 L 307.316406 27.265625 C 308.164062 27.214844 309.011719 27.164062 309.902344 27.105469 C 312.367188 26.945312 314.921875 26.785156 317.40625 26.785156 L 325.882812 26.785156 L 325.734375 30.929688 C 325.144531 48.160156 324.535156 65.96875 323.226562 83.398438 L 323.097656 85.175781 L 335.9375 85.175781 L 335.9375 83.527344 C 335.9375 68.15625 336.683594 52.472656 337.414062 37.296875 L 337.464844 36.339844 C 337.613281 33.164062 337.761719 29.980469 337.914062 26.804688 L 344.582031 26.804688 C 346.925781 26.804688 352.398438 26.90625 356.351562 27.285156 Z M 358.066406 27.433594 " clip-rule="nonzero"/></clipPath><clipPath id="f2be315bbd"><path d="M 0.4375 0.0117188 L 53.683594 0.0117188 L 53.683594 68.292969 L 0.4375 68.292969 Z M 0.4375 0.0117188 " clip-rule="nonzero"/></clipPath><clipPath id="968cd4fea1"><path d="M 53.066406 10.433594 L 53.507812 0.183594 L 0.929688 0.183594 L 0.488281 10.375 L 2.316406 10.265625 C 3.164062 10.214844 4.011719 10.164062 4.902344 10.105469 C 7.367188 9.945312 9.921875 9.785156 12.40625 9.785156 L 20.882812 9.785156 L 20.734375 13.929688 C 20.144531 31.160156 19.535156 48.96875 18.226562 66.398438 L 18.097656 68.175781 L 30.9375 68.175781 L 30.9375 66.527344 C 30.9375 51.15625 31.683594 35.472656 32.414062 20.296875 L 32.464844 19.339844 C 32.613281 16.164062 32.761719 12.980469 32.914062 9.804688 L 39.582031 9.804688 C 41.925781 9.804688 47.398438 9.90625 51.351562 10.285156 Z M 53.066406 10.433594 " clip-rule="nonzero"/></clipPath><clipPath id="00cdf74310"><rect x="0" width="54" y="0" height="69"/></clipPath><clipPath id="d63ffa05d9"><path d="M 349.214844 32.699219 L 397.726562 32.699219 L 397.726562 86.335938 L 349.214844 86.335938 Z M 349.214844 32.699219 " clip-rule="nonzero"/></clipPath><clipPath id="0bbd24684f"><path d="M 386.488281 51.800781 L 362.03125 51.800781 C 363.878906 44.914062 368.769531 41.140625 375.886719 41.140625 C 383.902344 41.140625 386.117188 46.761719 386.488281 51.800781 M 375.109375 32.796875 C 359.554688 32.796875 349.503906 43.726562 349.503906 60.636719 C 349.503906 72.316406 354.113281 86.242188 376.078125 86.242188 C 381.046875 86.242188 385.980469 85.59375 391.140625 84.246094 L 392.148438 83.988281 L 394.234375 73.117188 L 391.558594 74.003906 C 387.488281 75.363281 382.175781 76.929688 377.34375 76.929688 C 367.140625 76.929688 361.050781 71.058594 361.050781 61.214844 L 361.050781 60.160156 L 397.148438 60.160156 L 397.308594 58.691406 C 397.519531 56.804688 397.609375 55.40625 397.609375 54.148438 C 397.609375 40.582031 389.402344 32.804688 375.109375 32.804688 " clip-rule="nonzero"/></clipPath><clipPath id="ba51af0060"><path d="M 0.386719 0.699219 L 48.726562 0.699219 L 48.726562 54.25 L 0.386719 54.25 Z M 0.386719 0.699219 " clip-rule="nonzero"/></clipPath><clipPath id="b0ba3466ea"><path d="M 37.488281 19.800781 L 13.03125 19.800781 C 14.878906 12.914062 19.769531 9.140625 26.886719 9.140625 C 34.902344 9.140625 37.117188 14.761719 37.488281 19.800781 M 26.109375 0.796875 C 10.554688 0.796875 0.503906 11.726562 0.503906 28.636719 C 0.503906 40.316406 5.113281 54.242188 27.078125 54.242188 C 32.046875 54.242188 36.980469 53.59375 42.140625 52.246094 L 43.148438 51.988281 L 45.234375 41.117188 L 42.558594 42.003906 C 38.488281 43.363281 33.175781 44.929688 28.34375 44.929688 C 18.140625 44.929688 12.050781 39.058594 12.050781 29.214844 L 12.050781 28.160156 L 48.148438 28.160156 L 48.308594 26.691406 C 48.519531 24.804688 48.609375 23.40625 48.609375 22.148438 C 48.609375 8.582031 40.402344 0.804688 26.109375 0.804688 " clip-rule="nonzero"/></clipPath><clipPath id="534b8db29d"><rect x="0" width="49" y="0" height="55"/></clipPath><clipPath id="bf8684fd9e"><path d="M 400.488281 32.699219 L 442.6875 32.699219 L 442.6875 86.335938 L 400.488281 86.335938 Z M 400.488281 32.699219 " clip-rule="nonzero"/></clipPath><clipPath id="065930524e"><path d="M 427.089844 42.121094 C 432.46875 42.121094 436.589844 43.246094 440.246094 44.457031 L 442.601562 45.242188 L 441.851562 35.03125 L 440.753906 34.710938 C 436.460938 33.445312 431.871094 32.804688 427.097656 32.804688 C 410.636719 32.804688 400.8125 43.355469 400.8125 61.035156 C 400.8125 77.070312 409.898438 86.253906 425.742188 86.253906 C 429.882812 86.253906 434.027344 85.792969 438.410156 84.855469 L 439.496094 84.617188 L 441.304688 74.054688 L 438.71875 74.871094 C 435.683594 75.832031 431.710938 76.929688 427.867188 76.929688 C 417.863281 76.929688 412.355469 71.25 412.355469 60.925781 C 412.355469 51.832031 416.226562 42.109375 427.089844 42.109375 " clip-rule="nonzero"/></clipPath><clipPath id="e9eaae881c"><path d="M 0.660156 0.699219 L 42.6875 0.699219 L 42.6875 54.335938 L 0.660156 54.335938 Z M 0.660156 0.699219 " clip-rule="nonzero"/></clipPath><clipPath id="cc6aab83b1"><path d="M 27.089844 10.121094 C 32.46875 10.121094 36.589844 11.246094 40.246094 12.457031 L 42.601562 13.242188 L 41.851562 3.03125 L 40.753906 2.710938 C 36.460938 1.445312 31.871094 0.804688 27.097656 0.804688 C 10.636719 0.804688 0.8125 11.355469 0.8125 29.035156 C 0.8125 45.070312 9.898438 54.253906 25.742188 54.253906 C 29.882812 54.253906 34.027344 53.792969 38.410156 52.855469 L 39.496094 52.617188 L 41.304688 42.054688 L 38.71875 42.871094 C 35.683594 43.832031 31.710938 44.929688 27.867188 44.929688 C 17.863281 44.929688 12.355469 39.25 12.355469 28.925781 C 12.355469 19.832031 16.226562 10.109375 27.089844 10.109375 " clip-rule="nonzero"/></clipPath><clipPath id="b1f1de9eaf"><rect x="0" width="43" y="0" height="55"/></clipPath><clipPath id="1e7f841767"><path d="M 447.421875 17 L 499 17 L 499 85.550781 L 447.421875 85.550781 Z M 447.421875 17 " clip-rule="nonzero"/></clipPath><clipPath id="3c828a7686"><path d="M 478.976562 32.796875 C 470.914062 32.796875 465.003906 34.941406 460.980469 39.34375 C 461.300781 32.554688 461.757812 25.667969 462.207031 18.949219 L 462.316406 17.183594 L 450.386719 17.183594 L 450.367188 18.808594 C 450.078125 40.273438 449.199219 62.003906 447.753906 83.40625 L 447.632812 85.175781 L 459.652344 85.175781 L 459.710938 81.410156 C 459.800781 74.972656 459.992188 61.574219 461.578125 54.199219 C 463.175781 46.929688 468.515625 42.597656 475.875 42.597656 C 483.609375 42.597656 487.214844 45.714844 487.214844 52.390625 C 487.214844 60.566406 486.117188 76.847656 485.6875 83.097656 L 485.546875 85.175781 L 497.386719 85.175781 L 497.40625 83.546875 C 497.457031 79.046875 497.894531 69.613281 498.253906 61.875 C 498.523438 56.023438 498.765625 50.972656 498.765625 49.488281 C 498.765625 38.574219 491.917969 32.804688 478.96875 32.804688 " clip-rule="nonzero"/></clipPath><clipPath id="49e712c6c4"><path d="M 0.617188 0.0117188 L 51.890625 0.0117188 L 51.890625 68.292969 L 0.617188 68.292969 Z M 0.617188 0.0117188 " clip-rule="nonzero"/></clipPath><clipPath id="8547907206"><path d="M 31.976562 15.796875 C 23.914062 15.796875 18.003906 17.941406 13.980469 22.34375 C 14.300781 15.554688 14.757812 8.667969 15.207031 1.949219 L 15.316406 0.183594 L 3.386719 0.183594 L 3.367188 1.808594 C 3.078125 23.273438 2.199219 45.003906 0.753906 66.40625 L 0.632812 68.175781 L 12.652344 68.175781 L 12.710938 64.410156 C 12.800781 57.972656 12.992188 44.574219 14.578125 37.199219 C 16.175781 29.929688 21.515625 25.597656 28.875 25.597656 C 36.609375 25.597656 40.214844 28.714844 40.214844 35.390625 C 40.214844 43.566406 39.117188 59.847656 38.6875 66.097656 L 38.546875 68.175781 L 50.386719 68.175781 L 50.40625 66.546875 C 50.457031 62.046875 50.894531 52.613281 51.253906 44.875 C 51.523438 39.023438 51.765625 33.972656 51.765625 32.488281 C 51.765625 21.574219 44.917969 15.804688 31.96875 15.804688 " clip-rule="nonzero"/></clipPath><clipPath id="008cd315c3"><rect x="0" width="52" y="0" height="69"/></clipPath><clipPath id="a41bc89fca"><path d="M 476.363281 121.222656 L 498.835938 121.222656 L 498.835938 143.523438 L 476.363281 143.523438 Z M 476.363281 121.222656 " clip-rule="nonzero"/></clipPath><clipPath id="b19a855324"><path d="M 481.3125 136.984375 L 488.75 136.984375 L 488.75 133.414062 L 481.3125 133.414062 Z M 478.347656 140.949219 L 478.347656 130.9375 L 491.824219 130.9375 L 491.824219 139.460938 L 481.3125 139.460938 L 481.3125 140.949219 Z M 490.535156 143.523438 C 490.335938 142.535156 490.105469 141.609375 489.835938 140.75 C 490.957031 140.820312 492.253906 140.847656 493.699219 140.847656 C 495.089844 140.917969 495.746094 140.320312 495.6875 139.0625 L 495.6875 123.898438 L 477.351562 123.898438 L 477.351562 121.222656 L 498.761719 121.222656 L 498.761719 139.949219 C 498.832031 142.328125 497.632812 143.523438 495.199219 143.523438 Z M 476.363281 126.175781 L 494 126.175781 L 494 128.761719 L 476.363281 128.761719 Z M 476.363281 126.175781 " clip-rule="nonzero"/></clipPath><clipPath id="9628c49a33"><path d="M 0.363281 0.222656 L 22.835938 0.222656 L 22.835938 22.523438 L 0.363281 22.523438 Z M 0.363281 0.222656 " clip-rule="nonzero"/></clipPath><clipPath id="67189a5c0f"><path d="M 5.3125 15.984375 L 12.75 15.984375 L 12.75 12.414062 L 5.3125 12.414062 Z M 2.347656 19.949219 L 2.347656 9.9375 L 15.824219 9.9375 L 15.824219 18.460938 L 5.3125 18.460938 L 5.3125 19.949219 Z M 14.535156 22.523438 C 14.335938 21.535156 14.105469 20.609375 13.835938 19.75 C 14.957031 19.820312 16.253906 19.847656 17.699219 19.847656 C 19.089844 19.917969 19.746094 19.320312 19.6875 18.0625 L 19.6875 2.898438 L 1.351562 2.898438 L 1.351562 0.222656 L 22.761719 0.222656 L 22.761719 18.949219 C 22.832031 21.328125 21.632812 22.523438 19.199219 22.523438 Z M 0.363281 5.175781 L 18 5.175781 L 18 7.761719 L 0.363281 7.761719 Z M 0.363281 5.175781 " clip-rule="nonzero"/></clipPath><clipPath id="e000cbba86"><rect x="0" width="23" y="0" height="23"/></clipPath></defs><g clip-path="url(#be454bc880)"><g clip-path="url(#c53f1ce58a)"><g transform="matrix(1, 0, 0, 1, 5, 4)"><g clip-path="url(#223eb258bd)"><g clip-path="url(#e2c4139973)"><g clip-path="url(#e764e8261f)"><rect x="-116.045" width="726.84" fill="#249F8D" height="208.439996" y="-35.844999" fill-opacity="1"/></g></g></g></g></g></g><g clip-path="url(#fc54444080)"><g clip-path="url(#335a113567)"><g transform="matrix(1, 0, 0, 1, 45, 91)"><g clip-path="url(#9a2856ae3a)"><g clip-path="url(#23f7a6d52c)"><g clip-path="url(#ad2d1711c1)"><rect x="-156.045" width="726.84" fill="#249F8D" height="208.439996" y="-122.844999" fill-opacity="1"/></g></g></g></g></g></g><g clip-path="url(#ad09fc6df4)"><g transform="matrix(1, 0, 0, 1, 110, 121)"><g clip-path="url(#b42a533a86)"><g clip-path="url(#5adfabf714)"><path fill="#3F545C" d="M 0.589844 0.125 L 23.375 0.125 L 23.375 22.824219 L 0.589844 22.824219 Z M 0.589844 0.125 " fill-opacity="1" fill-rule="nonzero"/></g></g></g></g><g clip-path="url(#6c932f6cf1)"><g clip-path="url(#e3a37cf8b7)"><g transform="matrix(1, 0, 0, 1, 150, 120)"><g clip-path="url(#339d179ca5)"><g clip-path="url(#6d586edd7c)"><g clip-path="url(#8c81b39246)"><path fill="#3F545C" d="M 0.667969 0.132812 L 23.265625 0.132812 L 23.265625 23.792969 L 0.667969 23.792969 Z M 0.667969 0.132812 " fill-opacity="1" fill-rule="nonzero"/></g></g></g></g></g></g><g clip-path="url(#36c0bfe514)"><g clip-path="url(#966d84c617)"><g transform="matrix(1, 0, 0, 1, 191, 120)"><g clip-path="url(#928a8e7fea)"><g clip-path="url(#302130e21e)"><g clip-path="url(#6a4d51f344)"><path fill="#3F545C" d="M 0.242188 0.234375 L 24.285156 0.234375 L 24.285156 23.722656 L 0.242188 23.722656 Z M 0.242188 0.234375 " fill-opacity="1" fill-rule="nonzero"/></g></g></g></g></g></g><g clip-path="url(#6e81b6cbb4)"><g clip-path="url(#31382779a9)"><g transform="matrix(1, 0, 0, 1, 231, 120)"><g clip-path="url(#0404ae579c)"><g clip-path="url(#c09ee64b41)"><g clip-path="url(#39cf44c339)"><path fill="#3F545C" d="M 0.917969 0.132812 L 24.984375 0.132812 L 24.984375 23.921875 L 0.917969 23.921875 Z M 0.917969 0.132812 " fill-opacity="1" fill-rule="nonzero"/></g></g></g></g></g></g><g clip-path="url(#02caa3e5b4)"><g clip-path="url(#50c4b00911)"><g transform="matrix(1, 0, 0, 1, 272, 121)"><g clip-path="url(#7cc0a7ca06)"><g clip-path="url(#807cd0fb13)"><g clip-path="url(#1add3d2df3)"><path fill="#3F545C" d="M 0.394531 0.0273438 L 24.792969 0.0273438 L 24.792969 22.824219 L 0.394531 22.824219 Z M 0.394531 0.0273438 " fill-opacity="1" fill-rule="nonzero"/></g></g></g></g></g></g><g clip-path="url(#b6b50aa408)"><g clip-path="url(#8e0332d988)"><g transform="matrix(1, 0, 0, 1, 313, 120)"><g clip-path="url(#23e37fa099)"><g clip-path="url(#cdc13411c7)"><g clip-path="url(#6e028c9391)"><path fill="#3F545C" d="M 0.265625 0.234375 L 24.316406 0.234375 L 24.316406 23.824219 L 0.265625 23.824219 Z M 0.265625 0.234375 " fill-opacity="1" fill-rule="nonzero"/></g></g></g></g></g></g><g clip-path="url(#6de6f5c574)"><g clip-path="url(#22d4d496b4)"><g transform="matrix(1, 0, 0, 1, 353, 120)"><g clip-path="url(#6ee3d30eb4)"><g clip-path="url(#11f5f948e0)"><g clip-path="url(#b819f68369)"><path fill="#3F545C" d="M 0.941406 0.0351562 L 24.816406 0.0351562 L 24.816406 23.722656 L 0.941406 23.722656 Z M 0.941406 0.0351562 " fill-opacity="1" fill-rule="nonzero"/></g></g></g></g></g></g><g clip-path="url(#b604a9f6f8)"><g clip-path="url(#fd3e947f6a)"><g transform="matrix(1, 0, 0, 1, 395, 121)"><g clip-path="url(#beabf94cba)"><g clip-path="url(#dac95a7866)"><g clip-path="url(#b223c9ca77)"><path fill="#3F545C" d="M 0.609375 0.125 L 23.839844 0.125 L 23.839844 22.824219 L 0.609375 22.824219 Z M 0.609375 0.125 " fill-opacity="1" fill-rule="nonzero"/></g></g></g></g></g></g><g clip-path="url(#004e38b00c)"><g clip-path="url(#81549bdb76)"><g transform="matrix(1, 0, 0, 1, 435, 120)"><g clip-path="url(#f4b29bab68)"><g clip-path="url(#fafcd40bc9)"><g clip-path="url(#b8cf7fcbfe)"><path fill="#3F545C" d="M 0.191406 0.53125 L 24.578125 0.53125 L 24.578125 23.824219 L 0.191406 23.824219 Z M 0.191406 0.53125 " fill-opacity="1" fill-rule="nonzero"/></g></g></g></g></g></g><g clip-path="url(#934900f8b5)"><g clip-path="url(#aab869efdd)"><g transform="matrix(1, 0, 0, 1, 110, 17)"><g clip-path="url(#a8a655769f)"><g clip-path="url(#3cb942c5d0)"><g clip-path="url(#d8c343ed7d)"><rect x="-221.045" width="726.84" fill="#249F8D" height="208.439996" y="-48.844999" fill-opacity="1"/></g></g></g></g></g></g><g clip-path="url(#edf7e3284c)"><g clip-path="url(#148b7082f7)"><g transform="matrix(1, 0, 0, 1, 160, 32)"><g clip-path="url(#bb7aefc056)"><g clip-path="url(#cdcce06e35)"><g clip-path="url(#0fd6d31abf)"><rect x="-271.045" width="726.84" fill="#249F8D" height="208.439996" y="-63.844999" fill-opacity="1"/></g></g></g></g></g></g><g clip-path="url(#7de7fddf33)"><g clip-path="url(#a605871899)"><g transform="matrix(1, 0, 0, 1, 215, 17)"><g clip-path="url(#a99ab51a7d)"><g clip-path="url(#89274c4493)"><g clip-path="url(#8746d076ba)"><rect x="-326.045" width="726.84" fill="#249F8D" height="208.439996" y="-48.844999" fill-opacity="1"/></g></g></g></g></g></g><g clip-path="url(#554766872e)"><g clip-path="url(#f0b33728fc)"><g transform="matrix(1, 0, 0, 1, 237, 17)"><g clip-path="url(#a86c895fd7)"><g clip-path="url(#b4cd41983a)"><g clip-path="url(#d47d0dd677)"><rect x="-348.045" width="726.84" fill="#249F8D" height="208.439996" y="-48.844999" fill-opacity="1"/></g></g></g></g></g></g><g clip-path="url(#205dcb3e25)"><g clip-path="url(#244480ff65)"><g transform="matrix(1, 0, 0, 1, 253, 33)"><g clip-path="url(#f083a54cf4)"><g clip-path="url(#c5537a4c21)"><g clip-path="url(#eaaa79c2a8)"><rect x="-364.045" width="726.84" fill="#249F8D" height="208.439996" y="-64.844999" fill-opacity="1"/></g></g></g></g></g></g><g clip-path="url(#2e3a2163dc)"><g clip-path="url(#8185a6f700)"><g transform="matrix(1, 0, 0, 1, 305, 17)"><g clip-path="url(#00cdf74310)"><g clip-path="url(#f2be315bbd)"><g clip-path="url(#968cd4fea1)"><rect x="-416.045" width="726.84" fill="#249F8D" height="208.439996" y="-48.844999" fill-opacity="1"/></g></g></g></g></g></g><g clip-path="url(#d63ffa05d9)"><g clip-path="url(#0bbd24684f)"><g transform="matrix(1, 0, 0, 1, 349, 32)"><g clip-path="url(#534b8db29d)"><g clip-path="url(#ba51af0060)"><g clip-path="url(#b0ba3466ea)"><rect x="-460.045" width="726.84" fill="#249F8D" height="208.439996" y="-63.844999" fill-opacity="1"/></g></g></g></g></g></g><g clip-path="url(#bf8684fd9e)"><g clip-path="url(#065930524e)"><g transform="matrix(1, 0, 0, 1, 400, 32)"><g clip-path="url(#b1f1de9eaf)"><g clip-path="url(#e9eaae881c)"><g clip-path="url(#cc6aab83b1)"><rect x="-511.045" width="726.84" fill="#249F8D" height="208.439996" y="-63.844999" fill-opacity="1"/></g></g></g></g></g></g><g clip-path="url(#1e7f841767)"><g clip-path="url(#3c828a7686)"><g transform="matrix(1, 0, 0, 1, 447, 17)"><g clip-path="url(#008cd315c3)"><g clip-path="url(#49e712c6c4)"><g clip-path="url(#8547907206)"><rect x="-558.045" width="726.84" fill="#249F8D" height="208.439996" y="-48.844999" fill-opacity="1"/></g></g></g></g></g></g><g clip-path="url(#a41bc89fca)"><g clip-path="url(#b19a855324)"><g transform="matrix(1, 0, 0, 1, 476, 121)"><g clip-path="url(#e000cbba86)"><g clip-path="url(#9628c49a33)"><g clip-path="url(#67189a5c0f)"><path fill="#3F545C" d="M 0.363281 0.222656 L 22.75 0.222656 L 22.75 22.523438 L 0.363281 22.523438 Z M 0.363281 0.222656 " fill-opacity="1" fill-rule="nonzero"/></g></g></g></g></g></g></svg>