<svg xmlns="http://www.w3.org/2000/svg" xmlns:xlink="http://www.w3.org/1999/xlink" width="1000" zoomAndPan="magnify" viewBox="0 0 750 749.999995" height="1000" preserveAspectRatio="xMidYMid meet" version="1.0"><defs><clipPath id="78f097e349"><path d="M 203 30.039062 L 547 30.039062 L 547 553.324219 L 203 553.324219 Z M 203 30.039062 " clip-rule="nonzero"/></clipPath><clipPath id="feabc10c6b"><path d="M 203.476562 408.058594 L 203.476562 553.101562 L 546.535156 377.53125 L 546.535156 211.277344 L 203.476562 30.835938 L 203.476562 176.742188 L 426.40625 293.972656 Z M 203.476562 408.058594 " clip-rule="nonzero"/></clipPath><clipPath id="8951eb22c0"><path d="M 0.28125 0.71875 L 343.71875 0.71875 L 343.71875 523.199219 L 0.28125 523.199219 Z M 0.28125 0.71875 " clip-rule="nonzero"/></clipPath><clipPath id="7bac066f4f"><path d="M 0.476562 378.058594 L 0.476562 523.101562 L 343.535156 347.53125 L 343.535156 181.277344 L 0.476562 0.835938 L 0.476562 146.742188 L 223.40625 263.972656 Z M 0.476562 378.058594 " clip-rule="nonzero"/></clipPath><clipPath id="576c0c5e4e"><rect x="0" width="344" y="0" height="524"/></clipPath><clipPath id="5c0c25c4c9"><path d="M 416.105469 493.25 L 545.738281 493.25 L 545.738281 719.320312 L 416.105469 719.320312 Z M 416.105469 493.25 " clip-rule="nonzero"/></clipPath><clipPath id="29981daccd"><path d="M 416.292969 493.714844 L 416.292969 651.894531 L 545.425781 719.175781 L 545.425781 563.09375 Z M 416.292969 493.714844 " clip-rule="nonzero"/></clipPath><clipPath id="b88de6ece6"><path d="M 0.160156 0.679688 L 129.519531 0.679688 L 129.519531 226.28125 L 0.160156 226.28125 Z M 0.160156 0.679688 " clip-rule="nonzero"/></clipPath><clipPath id="f03ce226d4"><path d="M 0.292969 0.714844 L 0.292969 158.894531 L 129.425781 226.175781 L 129.425781 70.09375 Z M 0.292969 0.714844 " clip-rule="nonzero"/></clipPath><clipPath id="13cdd0de7e"><rect x="0" width="130" y="0" height="227"/></clipPath></defs><g clip-path="url(#78f097e349)"><g clip-path="url(#feabc10c6b)"><g transform="matrix(1, 0, 0, 1, 203, 30)"><g clip-path="url(#576c0c5e4e)"><g clip-path="url(#8951eb22c0)"><g clip-path="url(#7bac066f4f)"><rect x="-368" width="1080" fill="#46bfad" height="1079.999992" y="-194.999999" fill-opacity="1"/></g></g></g></g></g></g><g clip-path="url(#5c0c25c4c9)"><g clip-path="url(#29981daccd)"><g transform="matrix(1, 0, 0, 1, 416, 493)"><g clip-path="url(#13cdd0de7e)"><g clip-path="url(#b88de6ece6)"><g clip-path="url(#f03ce226d4)"><rect x="-581" width="1080" fill="#46bfad" height="1079.999992" y="-657.999999" fill-opacity="1"/></g></g></g></g></g></g></svg>