<svg width="658" height="155" viewBox="0 0 658 155" fill="none" xmlns="http://www.w3.org/2000/svg">
<mask id="mask0_20_2439" style="mask-type:luminance" maskUnits="userSpaceOnUse" x="10" y="10" width="67" height="102">
<path d="M10 10H76.9517V111.931H10V10Z" fill="white"/>
</mask>
<g mask="url(#mask0_20_2439)">
<mask id="mask1_20_2439" style="mask-type:luminance" maskUnits="userSpaceOnUse" x="10" y="10" width="67" height="102">
<path d="M10.065 83.5388V111.793L76.8826 77.5856V45.2069L10.065 10.065V38.4776L53.4845 61.315L10.065 83.5388Z" fill="white"/>
</mask>
<g mask="url(#mask1_20_2439)">
<mask id="mask2_20_2439" style="mask-type:luminance" maskUnits="userSpaceOnUse" x="9" y="9" width="69" height="104">
<path d="M77.3702 9.03287H9.75212V112.02H77.3702V9.03287Z" fill="white"/>
</mask>
<g mask="url(#mask2_20_2439)">
<mask id="mask3_20_2439" style="mask-type:luminance" maskUnits="userSpaceOnUse" x="10" y="10" width="67" height="102">
<path d="M10 10H76.9029V111.793H10V10Z" fill="white"/>
</mask>
<g mask="url(#mask3_20_2439)">
<mask id="mask4_20_2439" style="mask-type:luminance" maskUnits="userSpaceOnUse" x="10" y="10" width="67" height="102">
<path d="M10.065 83.5388V111.793L76.8826 77.5856V45.2069L10.065 10.065V38.4776L53.4845 61.315L10.065 83.5388Z" fill="white"/>
</mask>
<g mask="url(#mask4_20_2439)">
<path d="M645.149 -28.2559H-110.967V188.58H645.149V-28.2559Z" fill="#48BAAA"/>
</g>
</g>
</g>
</g>
</g>
<mask id="mask5_20_2439" style="mask-type:luminance" maskUnits="userSpaceOnUse" x="51" y="100" width="26" height="45">
<path d="M51.3633 100.171H76.9517V144.2H51.3633V100.171Z" fill="white"/>
</mask>
<g mask="url(#mask5_20_2439)">
<mask id="mask6_20_2439" style="mask-type:luminance" maskUnits="userSpaceOnUse" x="51" y="100" width="26" height="45">
<path d="M51.5136 100.224V131.038L76.6632 144.131V113.735L51.5136 100.224Z" fill="white"/>
</mask>
<g mask="url(#mask6_20_2439)">
<mask id="mask7_20_2439" style="mask-type:luminance" maskUnits="userSpaceOnUse" x="51" y="99" width="27" height="46">
<path d="M77.3702 99.5371H51.3633V144.269H77.3702V99.5371Z" fill="white"/>
</mask>
<g mask="url(#mask7_20_2439)">
<mask id="mask8_20_2439" style="mask-type:luminance" maskUnits="userSpaceOnUse" x="51" y="100" width="26" height="45">
<path d="M51.4811 100.171H76.9029V144.196H51.4811V100.171Z" fill="white"/>
</mask>
<g mask="url(#mask8_20_2439)">
<mask id="mask9_20_2439" style="mask-type:luminance" maskUnits="userSpaceOnUse" x="51" y="100" width="26" height="45">
<path d="M51.5136 100.224V131.038L76.6632 144.131V113.735L51.5136 100.224Z" fill="white"/>
</mask>
<g mask="url(#mask9_20_2439)">
<path d="M645.149 -28.2559H-110.967V188.58H645.149V-28.2559Z" fill="#48BAAA"/>
</g>
</g>
</g>
</g>
</g>
<mask id="mask10_20_2439" style="mask-type:luminance" maskUnits="userSpaceOnUse" x="128" y="16" width="68" height="92">
<path d="M128.952 16.1521H195.493V107.553H128.952V16.1521Z" fill="white"/>
</mask>
<g mask="url(#mask10_20_2439)">
<mask id="mask11_20_2439" style="mask-type:luminance" maskUnits="userSpaceOnUse" x="129" y="16" width="67" height="92">
<path d="M148.275 29.2146H164.79C174.176 29.2146 178.368 32.725 178.368 40.5948C178.368 52.3344 167.785 56.501 158.723 56.501C156.379 56.501 153.837 56.2198 150.723 55.6365L147.238 54.9698C147.53 46.8083 147.874 38.2667 148.275 29.2146ZM194.676 39.4229C194.676 24.7927 184.905 16.3969 167.894 16.3969H132.728L132.712 18.5896C132.582 52.4125 131.223 77.4646 129.228 104.694L129.056 107.053H146.025L146.051 104.871C146.196 89.9594 146.571 74.2823 147.181 56.7927L148.42 58.8969C151.311 63.8083 154.332 68.7458 157.269 73.5219L157.389 73.7094C163.754 84.0635 170.327 94.7823 175.759 105.814L176.358 107.053H195.191L169.025 66.0427C184.436 64.1781 194.676 53.6521 194.676 39.4229Z" fill="white"/>
</mask>
<g mask="url(#mask11_20_2439)">
<mask id="mask12_20_2439" style="mask-type:luminance" maskUnits="userSpaceOnUse" x="128" y="16" width="68" height="93">
<path d="M195.618 16.1521H128.952V108.152H195.618V16.1521Z" fill="white"/>
</mask>
<g mask="url(#mask12_20_2439)">
<mask id="mask13_20_2439" style="mask-type:luminance" maskUnits="userSpaceOnUse" x="129" y="16" width="67" height="92">
<path d="M129.004 16.1677H195.452V107.209H129.004V16.1677Z" fill="white"/>
</mask>
<g mask="url(#mask13_20_2439)">
<mask id="mask14_20_2439" style="mask-type:luminance" maskUnits="userSpaceOnUse" x="129" y="16" width="67" height="92">
<path d="M148.275 29.2146H164.79C174.176 29.2146 178.368 32.725 178.368 40.5948C178.368 52.3344 167.785 56.501 158.723 56.501C156.379 56.501 153.837 56.2198 150.723 55.6365L147.238 54.9698C147.53 46.8083 147.874 38.2667 148.275 29.2146ZM194.676 39.4229C194.676 24.7927 184.905 16.3969 167.894 16.3969H132.728L132.712 18.5896C132.582 52.4125 131.223 77.4646 129.228 104.694L129.056 107.053H146.025L146.051 104.871C146.196 89.9594 146.571 74.2823 147.181 56.7927L148.42 58.8969C151.311 63.8083 154.332 68.7458 157.269 73.5219L157.389 73.7094C163.754 84.0635 170.327 94.7823 175.759 105.814L176.358 107.053H195.191L169.025 66.0427C184.436 64.1781 194.676 53.6521 194.676 39.4229Z" fill="white"/>
</mask>
<g mask="url(#mask14_20_2439)">
<path d="M803.345 -48.9746H-165.775V228.945H803.345V-48.9746Z" fill="#48BAAA"/>
</g>
</g>
</g>
</g>
</g>
<mask id="mask15_20_2439" style="mask-type:luminance" maskUnits="userSpaceOnUse" x="196" y="37" width="64" height="72">
<path d="M196.545 37.0844H259.124V108.6H196.545V37.0844Z" fill="white"/>
</mask>
<g mask="url(#mask15_20_2439)">
<mask id="mask16_20_2439" style="mask-type:luminance" maskUnits="userSpaceOnUse" x="196" y="37" width="64" height="72">
<path d="M232.42 37.2146C224.754 37.2146 216.754 38.3292 207.946 40.6469L206.519 41.0219L204.618 54.7562L208.212 53.2094C215.691 49.975 223.358 48.3396 230.999 48.3396C235.723 48.3396 243.67 49.2458 243.67 55.3135C243.67 61.3708 235.321 63.3812 225.66 65.7094C212.098 68.9958 196.723 72.699 196.723 89.3344C196.723 102.032 205.337 108.475 222.332 108.475C226.353 108.475 231.196 107.928 235.988 107.037L238.17 94.5427L236.389 95.1417C231.983 96.6052 227.738 97.35 223.769 97.35C220.894 97.35 211.483 96.7615 211.483 89.2042C211.483 81.5375 221.212 78.8344 230.624 76.225C235.379 74.9073 239.915 73.6573 243.457 71.7667C243.374 73.4021 243.311 75.0687 243.228 76.7562C242.79 86.7667 242.327 97.1104 241.368 104.564L241.045 107.053H257.139V104.855C257.139 97.0948 257.723 85.9177 258.243 76.0635C258.655 68.3604 259.066 60.3969 259.066 55.9646C259.066 47.9125 256.301 37.2146 232.42 37.2146Z" fill="white"/>
</mask>
<g mask="url(#mask16_20_2439)">
<mask id="mask17_20_2439" style="mask-type:luminance" maskUnits="userSpaceOnUse" x="195" y="36" width="65" height="74">
<path d="M259.618 36.1521H195.618V109.485H259.618V36.1521Z" fill="white"/>
</mask>
<g mask="url(#mask17_20_2439)">
<mask id="mask18_20_2439" style="mask-type:luminance" maskUnits="userSpaceOnUse" x="196" y="37" width="64" height="72">
<path d="M196.545 37.0844H259.124V108.485H196.545V37.0844Z" fill="white"/>
</mask>
<g mask="url(#mask18_20_2439)">
<mask id="mask19_20_2439" style="mask-type:luminance" maskUnits="userSpaceOnUse" x="196" y="37" width="64" height="72">
<path d="M232.42 37.2146C224.754 37.2146 216.754 38.3292 207.946 40.6469L206.519 41.0219L204.618 54.7562L208.212 53.2094C215.691 49.975 223.358 48.3396 230.999 48.3396C235.723 48.3396 243.67 49.2458 243.67 55.3135C243.67 61.3708 235.321 63.3812 225.66 65.7094C212.098 68.9958 196.723 72.699 196.723 89.3344C196.723 102.032 205.337 108.475 222.332 108.475C226.353 108.475 231.196 107.928 235.988 107.037L238.17 94.5427L236.389 95.1417C231.983 96.6052 227.738 97.35 223.769 97.35C220.894 97.35 211.483 96.7615 211.483 89.2042C211.483 81.5375 221.212 78.8344 230.624 76.225C235.379 74.9073 239.915 73.6573 243.457 71.7667C243.374 73.4021 243.311 75.0687 243.228 76.7562C242.79 86.7667 242.327 97.1104 241.368 104.564L241.045 107.053H257.139V104.855C257.139 97.0948 257.723 85.9177 258.243 76.0635C258.655 68.3604 259.066 60.3969 259.066 55.9646C259.066 47.9125 256.301 37.2146 232.42 37.2146Z" fill="white"/>
</mask>
<g mask="url(#mask19_20_2439)">
<path d="M803.345 -48.9746H-165.775V228.945H803.345V-48.9746Z" fill="#48BAAA"/>
</g>
</g>
</g>
</g>
</g>
<mask id="mask20_20_2439" style="mask-type:luminance" maskUnits="userSpaceOnUse" x="268" y="16" width="22" height="92">
<path d="M268.952 16.1521H289.624V107.553H268.952V16.1521Z" fill="white"/>
</mask>
<g mask="url(#mask20_20_2439)">
<mask id="mask21_20_2439" style="mask-type:luminance" maskUnits="userSpaceOnUse" x="268" y="16" width="22" height="92">
<path d="M273.019 18.5531C272.379 47.1156 271.077 76.1052 269.144 104.694L268.983 107.053H285.129L285.186 104.907C285.941 76.6625 286.863 46.7562 288.926 18.7667L289.097 16.3969H273.056L273.019 18.5531Z" fill="white"/>
</mask>
<g mask="url(#mask21_20_2439)">
<mask id="mask22_20_2439" style="mask-type:luminance" maskUnits="userSpaceOnUse" x="268" y="16" width="23" height="93">
<path d="M290.285 16.1521H268.952V108.152H290.285V16.1521Z" fill="white"/>
</mask>
<g mask="url(#mask22_20_2439)">
<mask id="mask23_20_2439" style="mask-type:luminance" maskUnits="userSpaceOnUse" x="268" y="16" width="22" height="92">
<path d="M268.952 16.1677H289.368V107.209H268.952V16.1677Z" fill="white"/>
</mask>
<g mask="url(#mask23_20_2439)">
<mask id="mask24_20_2439" style="mask-type:luminance" maskUnits="userSpaceOnUse" x="268" y="16" width="22" height="92">
<path d="M273.019 18.5531C272.379 47.1156 271.077 76.1052 269.144 104.694L268.983 107.053H285.129L285.186 104.907C285.941 76.6625 286.863 46.7562 288.926 18.7667L289.097 16.3969H273.056L273.019 18.5531Z" fill="white"/>
</mask>
<g mask="url(#mask24_20_2439)">
<path d="M803.345 -48.9746H-165.775V228.945H803.345V-48.9746Z" fill="#48BAAA"/>
</g>
</g>
</g>
</g>
</g>
<mask id="mask25_20_2439" style="mask-type:luminance" maskUnits="userSpaceOnUse" x="298" y="16" width="21" height="92">
<path d="M298.285 16.1521H318.545V107.553H298.285V16.1521Z" fill="white"/>
</mask>
<g mask="url(#mask25_20_2439)">
<mask id="mask26_20_2439" style="mask-type:luminance" maskUnits="userSpaceOnUse" x="298" y="16" width="21" height="92">
<path d="M302.368 18.5531C301.728 47.1156 300.426 76.0948 298.493 104.694L298.332 107.053H314.478L314.535 104.907C315.29 76.6521 316.212 46.7146 318.275 18.7667L318.457 16.3969H302.42L302.368 18.5531Z" fill="white"/>
</mask>
<g mask="url(#mask26_20_2439)">
<mask id="mask27_20_2439" style="mask-type:luminance" maskUnits="userSpaceOnUse" x="298" y="16" width="22" height="93">
<path d="M319.618 16.1521H298.285V108.152H319.618V16.1521Z" fill="white"/>
</mask>
<g mask="url(#mask27_20_2439)">
<mask id="mask28_20_2439" style="mask-type:luminance" maskUnits="userSpaceOnUse" x="298" y="16" width="21" height="92">
<path d="M298.316 16.1677H318.545V107.209H298.316V16.1677Z" fill="white"/>
</mask>
<g mask="url(#mask28_20_2439)">
<mask id="mask29_20_2439" style="mask-type:luminance" maskUnits="userSpaceOnUse" x="298" y="16" width="21" height="92">
<path d="M302.368 18.5531C301.728 47.1156 300.426 76.0948 298.493 104.694L298.332 107.053H314.478L314.535 104.907C315.29 76.6521 316.212 46.7146 318.275 18.7667L318.457 16.3969H302.42L302.368 18.5531Z" fill="white"/>
</mask>
<g mask="url(#mask29_20_2439)">
<path d="M803.345 -48.9746H-165.775V228.945H803.345V-48.9746Z" fill="#48BAAA"/>
</g>
</g>
</g>
</g>
</g>
<mask id="mask30_20_2439" style="mask-type:luminance" maskUnits="userSpaceOnUse" x="319" y="38" width="77" height="101">
<path d="M319.618 38.1365H395.848V138.048H319.618V38.1365Z" fill="white"/>
</mask>
<g mask="url(#mask30_20_2439)">
<mask id="mask31_20_2439" style="mask-type:luminance" maskUnits="userSpaceOnUse" x="320" y="38" width="76" height="100">
<path d="M358.019 89.751C356.019 83.001 353.733 76.2406 351.493 69.5948C348.29 60.0688 344.962 50.2146 342.446 40.3031L342.019 38.6365H325.301L349.337 106.48C342.139 123.928 337.785 125.288 332.42 125.288C330.04 125.288 326.764 124.397 323.676 122.918L320.082 121.189L321.733 135.829L323.196 136.215C326.962 137.189 330.905 137.704 334.618 137.704C350.936 137.704 355.9 126.735 359.91 117.913L395.712 38.6365H379.327L358.019 89.751Z" fill="white"/>
</mask>
<g mask="url(#mask31_20_2439)">
<mask id="mask32_20_2439" style="mask-type:luminance" maskUnits="userSpaceOnUse" x="319" y="37" width="78" height="102">
<path d="M396.952 37.4854H319.618V138.819H396.952V37.4854Z" fill="white"/>
</mask>
<g mask="url(#mask32_20_2439)">
<mask id="mask33_20_2439" style="mask-type:luminance" maskUnits="userSpaceOnUse" x="320" y="38" width="76" height="100">
<path d="M320.035 38.5271H395.743V137.876H320.035V38.5271Z" fill="white"/>
</mask>
<g mask="url(#mask33_20_2439)">
<mask id="mask34_20_2439" style="mask-type:luminance" maskUnits="userSpaceOnUse" x="320" y="38" width="76" height="100">
<path d="M358.019 89.751C356.019 83.001 353.733 76.2406 351.493 69.5948C348.29 60.0688 344.962 50.2146 342.446 40.3031L342.019 38.6365H325.301L349.337 106.48C342.139 123.928 337.785 125.288 332.42 125.288C330.04 125.288 326.764 124.397 323.676 122.918L320.082 121.189L321.733 135.829L323.196 136.215C326.962 137.189 330.905 137.704 334.618 137.704C350.936 137.704 355.9 126.735 359.91 117.913L395.712 38.6365H379.327L358.019 89.751Z" fill="white"/>
</mask>
<g mask="url(#mask34_20_2439)">
<path d="M803.345 -48.9746H-165.775V228.945H803.345V-48.9746Z" fill="#48BAAA"/>
</g>
</g>
</g>
</g>
</g>
<mask id="mask35_20_2439" style="mask-type:luminance" maskUnits="userSpaceOnUse" x="389" y="16" width="72" height="92">
<path d="M389.535 16.1521H460.53V107.553H389.535V16.1521Z" fill="white"/>
</mask>
<g mask="url(#mask35_20_2439)">
<mask id="mask36_20_2439" style="mask-type:luminance" maskUnits="userSpaceOnUse" x="389" y="16" width="72" height="92">
<path d="M459.707 30.0635L460.295 16.3969H390.191L389.603 29.9854L392.04 29.8396C393.17 29.7719 394.301 29.7042 395.488 29.626C398.775 29.4125 402.181 29.1989 405.493 29.1989H416.795L416.598 34.725C415.811 57.699 414.999 81.4437 413.254 104.683L413.082 107.053H430.202V104.855C430.202 84.3604 431.197 63.449 432.17 43.2146L432.238 41.9385C432.436 37.7042 432.634 33.4594 432.837 29.225H441.728C444.853 29.225 452.15 29.3604 457.42 29.8656L459.707 30.0635Z" fill="white"/>
</mask>
<g mask="url(#mask36_20_2439)">
<mask id="mask37_20_2439" style="mask-type:luminance" maskUnits="userSpaceOnUse" x="388" y="16" width="73" height="93">
<path d="M460.952 16.1521H388.952V108.152H460.952V16.1521Z" fill="white"/>
</mask>
<g mask="url(#mask37_20_2439)">
<mask id="mask38_20_2439" style="mask-type:luminance" maskUnits="userSpaceOnUse" x="389" y="16" width="72" height="92">
<path d="M389.535 16.1677H460.53V107.209H389.535V16.1677Z" fill="white"/>
</mask>
<g mask="url(#mask38_20_2439)">
<mask id="mask39_20_2439" style="mask-type:luminance" maskUnits="userSpaceOnUse" x="389" y="16" width="72" height="92">
<path d="M459.707 30.0635L460.295 16.3969H390.191L389.603 29.9854L392.04 29.8396C393.17 29.7719 394.301 29.7042 395.488 29.626C398.775 29.4125 402.181 29.1989 405.493 29.1989H416.795L416.598 34.725C415.811 57.699 414.999 81.4437 413.254 104.683L413.082 107.053H430.202V104.855C430.202 84.3604 431.197 63.449 432.17 43.2146L432.238 41.9385C432.436 37.7042 432.634 33.4594 432.837 29.225H441.728C444.853 29.225 452.15 29.3604 457.42 29.8656L459.707 30.0635Z" fill="white"/>
</mask>
<g mask="url(#mask39_20_2439)">
<path d="M803.345 -48.9746H-165.775V228.945H803.345V-48.9746Z" fill="#48BAAA"/>
</g>
</g>
</g>
</g>
</g>
<mask id="mask40_20_2439" style="mask-type:luminance" maskUnits="userSpaceOnUse" x="447" y="37" width="66" height="72">
<path d="M447.905 37.0844H512.587V108.6H447.905V37.0844Z" fill="white"/>
</mask>
<g mask="url(#mask40_20_2439)">
<mask id="mask41_20_2439" style="mask-type:luminance" maskUnits="userSpaceOnUse" x="448" y="37" width="65" height="72">
<path d="M497.603 62.5531H464.993C467.457 53.3708 473.978 48.3396 483.467 48.3396C494.155 48.3396 497.108 55.8344 497.603 62.5531ZM482.431 37.2146C461.691 37.2146 448.29 51.7875 448.29 74.3344C448.29 89.9073 454.436 108.475 483.723 108.475C490.348 108.475 496.926 107.61 503.806 105.814L505.15 105.47L507.931 90.975L504.363 92.1573C498.936 93.9698 491.853 96.0583 485.41 96.0583C471.806 96.0583 463.686 88.2302 463.686 75.1052V73.699H511.816L512.03 71.7406C512.311 69.225 512.431 67.3604 512.431 65.6833C512.431 47.5948 501.488 37.225 482.431 37.225" fill="white"/>
</mask>
<g mask="url(#mask41_20_2439)">
<mask id="mask42_20_2439" style="mask-type:luminance" maskUnits="userSpaceOnUse" x="447" y="36" width="66" height="74">
<path d="M512.952 36.1521H447.618V109.485H512.952V36.1521Z" fill="white"/>
</mask>
<g mask="url(#mask42_20_2439)">
<mask id="mask43_20_2439" style="mask-type:luminance" maskUnits="userSpaceOnUse" x="448" y="37" width="65" height="72">
<path d="M448.134 37.0844H512.587V108.485H448.134V37.0844Z" fill="white"/>
</mask>
<g mask="url(#mask43_20_2439)">
<mask id="mask44_20_2439" style="mask-type:luminance" maskUnits="userSpaceOnUse" x="448" y="37" width="65" height="72">
<path d="M497.603 62.5531H464.993C467.457 53.3708 473.978 48.3396 483.467 48.3396C494.155 48.3396 497.108 55.8344 497.603 62.5531ZM482.431 37.2146C461.691 37.2146 448.29 51.7875 448.29 74.3344C448.29 89.9073 454.436 108.475 483.723 108.475C490.348 108.475 496.926 107.61 503.806 105.814L505.15 105.47L507.931 90.975L504.363 92.1573C498.936 93.9698 491.853 96.0583 485.41 96.0583C471.806 96.0583 463.686 88.2302 463.686 75.1052V73.699H511.816L512.03 71.7406C512.311 69.225 512.431 67.3604 512.431 65.6833C512.431 47.5948 501.488 37.225 482.431 37.225" fill="white"/>
</mask>
<g mask="url(#mask44_20_2439)">
<path d="M803.345 -48.9746H-165.775V228.945H803.345V-48.9746Z" fill="#48BAAA"/>
</g>
</g>
</g>
</g>
</g>
<mask id="mask45_20_2439" style="mask-type:luminance" maskUnits="userSpaceOnUse" x="516" y="37" width="57" height="72">
<path d="M516.269 37.0844H572.535V108.6H516.269V37.0844Z" fill="white"/>
</mask>
<g mask="url(#mask45_20_2439)">
<mask id="mask46_20_2439" style="mask-type:luminance" maskUnits="userSpaceOnUse" x="516" y="37" width="57" height="72">
<path d="M551.738 49.6469C558.91 49.6469 564.405 51.1469 569.28 52.7614L572.42 53.8083L571.42 40.1937L569.957 39.7667C564.233 38.0792 558.113 37.225 551.749 37.225C529.801 37.225 516.702 51.2927 516.702 74.8656C516.702 96.2458 528.816 108.491 549.941 108.491C555.462 108.491 560.988 107.876 566.832 106.626L568.28 106.308L570.691 92.225L567.243 93.3135C563.197 94.5948 557.9 96.0583 552.775 96.0583C539.436 96.0583 532.092 88.4854 532.092 74.7198C532.092 62.5948 537.254 49.6312 551.738 49.6312" fill="white"/>
</mask>
<g mask="url(#mask46_20_2439)">
<mask id="mask47_20_2439" style="mask-type:luminance" maskUnits="userSpaceOnUse" x="515" y="36" width="58" height="74">
<path d="M572.952 36.1521H515.618V109.485H572.952V36.1521Z" fill="white"/>
</mask>
<g mask="url(#mask47_20_2439)">
<mask id="mask48_20_2439" style="mask-type:luminance" maskUnits="userSpaceOnUse" x="516" y="37" width="57" height="72">
<path d="M516.499 37.0844H572.535V108.6H516.499V37.0844Z" fill="white"/>
</mask>
<g mask="url(#mask48_20_2439)">
<mask id="mask49_20_2439" style="mask-type:luminance" maskUnits="userSpaceOnUse" x="516" y="37" width="57" height="72">
<path d="M551.738 49.6469C558.91 49.6469 564.405 51.1469 569.28 52.7614L572.42 53.8083L571.42 40.1937L569.957 39.7667C564.233 38.0792 558.113 37.225 551.749 37.225C529.801 37.225 516.702 51.2927 516.702 74.8656C516.702 96.2458 528.816 108.491 549.941 108.491C555.462 108.491 560.988 107.876 566.832 106.626L568.28 106.308L570.691 92.225L567.243 93.3135C563.197 94.5948 557.9 96.0583 552.775 96.0583C539.436 96.0583 532.092 88.4854 532.092 74.7198C532.092 62.5948 537.254 49.6312 551.738 49.6312" fill="white"/>
</mask>
<g mask="url(#mask49_20_2439)">
<path d="M803.345 -48.9746H-165.775V228.945H803.345V-48.9746Z" fill="#48BAAA"/>
</g>
</g>
</g>
</g>
</g>
<mask id="mask50_20_2439" style="mask-type:luminance" maskUnits="userSpaceOnUse" x="578" y="16" width="70" height="92">
<path d="M578.848 16.1521H647.618V107.553H578.848V16.1521Z" fill="white"/>
</mask>
<g mask="url(#mask50_20_2439)">
<mask id="mask51_20_2439" style="mask-type:luminance" maskUnits="userSpaceOnUse" x="579" y="16" width="69" height="92">
<path d="M620.92 37.2146C610.17 37.2146 602.29 40.0739 596.926 45.9437C597.353 36.8917 597.962 27.7094 598.561 18.751L598.707 16.3969H582.801L582.775 18.5635C582.389 47.1833 581.217 76.1573 579.29 104.694L579.129 107.053H595.155L595.233 102.032C595.353 93.449 595.608 75.5844 597.723 65.751C599.853 56.0583 606.973 50.2823 616.785 50.2823C627.098 50.2823 631.905 54.4385 631.905 63.3396C631.905 74.2406 630.441 95.949 629.868 104.282L629.681 107.053H645.467L645.493 104.881C645.561 98.8812 646.144 86.3031 646.624 75.9854C646.983 68.1833 647.306 61.449 647.306 59.4698C647.306 44.9177 638.176 37.225 620.91 37.225" fill="white"/>
</mask>
<g mask="url(#mask51_20_2439)">
<mask id="mask52_20_2439" style="mask-type:luminance" maskUnits="userSpaceOnUse" x="578" y="16" width="70" height="93">
<path d="M647.618 16.1521H578.285V108.152H647.618V16.1521Z" fill="white"/>
</mask>
<g mask="url(#mask52_20_2439)">
<mask id="mask53_20_2439" style="mask-type:luminance" maskUnits="userSpaceOnUse" x="579" y="16" width="69" height="92">
<path d="M579.108 16.1677H647.473V107.209H579.108V16.1677Z" fill="white"/>
</mask>
<g mask="url(#mask53_20_2439)">
<mask id="mask54_20_2439" style="mask-type:luminance" maskUnits="userSpaceOnUse" x="579" y="16" width="69" height="92">
<path d="M620.92 37.2146C610.17 37.2146 602.29 40.0739 596.926 45.9437C597.353 36.8917 597.962 27.7094 598.561 18.751L598.707 16.3969H582.801L582.775 18.5635C582.389 47.1833 581.217 76.1573 579.29 104.694L579.129 107.053H595.155L595.233 102.032C595.353 93.449 595.608 75.5844 597.723 65.751C599.853 56.0583 606.973 50.2823 616.785 50.2823C627.098 50.2823 631.905 54.4385 631.905 63.3396C631.905 74.2406 630.441 95.949 629.868 104.282L629.681 107.053H645.467L645.493 104.881C645.561 98.8812 646.144 86.3031 646.624 75.9854C646.983 68.1833 647.306 61.449 647.306 59.4698C647.306 44.9177 638.176 37.225 620.91 37.225" fill="white"/>
</mask>
<g mask="url(#mask54_20_2439)">
<path d="M803.345 -48.9746H-165.775V228.945H803.345V-48.9746Z" fill="#48BAAA"/>
</g>
</g>
</g>
</g>
</g>
</svg>
