<svg width="519" height="122" viewBox="0 0 519 122" fill="none" xmlns="http://www.w3.org/2000/svg">
<mask id="mask0_8_3394" style="mask-type:luminance" maskUnits="userSpaceOnUse" x="0" y="0" width="67" height="92">
<path d="M0 0H66.5417V91.401H0V0Z" fill="white"/>
</mask>
<g mask="url(#mask0_8_3394)">
<mask id="mask1_8_3394" style="mask-type:luminance" maskUnits="userSpaceOnUse" x="0" y="0" width="67" height="91">
<path d="M19.3229 13.0625H35.8386C45.224 13.0625 49.4167 16.5729 49.4167 24.4427C49.4167 36.1823 38.8334 40.3489 29.7709 40.3489C27.4271 40.3489 24.8854 40.0677 21.7709 39.4844L18.2865 38.8177C18.5781 30.6562 18.9219 22.1146 19.3229 13.0625ZM65.724 23.2708C65.724 8.64062 55.9532 0.244781 38.9427 0.244781H3.77606L3.76044 2.43749C3.63023 36.2604 2.27085 61.3125 0.276062 88.5417L0.104187 90.901H17.0729L17.099 88.7187C17.2448 73.8073 17.6198 58.1302 18.2292 40.6406L19.4688 42.7448C22.3594 47.6562 25.3802 52.5937 28.3177 57.3698L28.4375 57.5573C34.8021 67.9115 41.375 78.6302 46.8073 89.6615L47.4063 90.901H66.2396L40.0729 49.8906C55.4844 48.026 65.724 37.5 65.724 23.2708Z" fill="white"/>
</mask>
<g mask="url(#mask1_8_3394)">
<mask id="mask2_8_3394" style="mask-type:luminance" maskUnits="userSpaceOnUse" x="0" y="0" width="67" height="92">
<path d="M66.6667 0H0V92H66.6667V0Z" fill="white"/>
</mask>
<g mask="url(#mask2_8_3394)">
<mask id="mask3_8_3394" style="mask-type:luminance" maskUnits="userSpaceOnUse" x="0" y="0" width="67" height="92">
<path d="M0.052124 0.015625H66.5V91.0573H0.052124V0.015625Z" fill="white"/>
</mask>
<g mask="url(#mask3_8_3394)">
<mask id="mask4_8_3394" style="mask-type:luminance" maskUnits="userSpaceOnUse" x="0" y="0" width="67" height="91">
<path d="M19.3229 13.0625H35.8386C45.224 13.0625 49.4167 16.5729 49.4167 24.4427C49.4167 36.1823 38.8334 40.3489 29.7709 40.3489C27.4271 40.3489 24.8854 40.0677 21.7709 39.4844L18.2865 38.8177C18.5781 30.6562 18.9219 22.1146 19.3229 13.0625ZM65.724 23.2708C65.724 8.64062 55.9532 0.244781 38.9427 0.244781H3.77606L3.76044 2.43749C3.63023 36.2604 2.27085 61.3125 0.276062 88.5417L0.104187 90.901H17.0729L17.099 88.7187C17.2448 73.8073 17.6198 58.1302 18.2292 40.6406L19.4688 42.7448C22.3594 47.6562 25.3802 52.5937 28.3177 57.3698L28.4375 57.5573C34.8021 67.9115 41.375 78.6302 46.8073 89.6615L47.4063 90.901H66.2396L40.0729 49.8906C55.4844 48.026 65.724 37.5 65.724 23.2708Z" fill="white"/>
</mask>
<g mask="url(#mask4_8_3394)">
<path d="M674.393 -65.1267H-294.727V212.793H674.393V-65.1267Z" fill="#48BAAA"/>
</g>
</g>
</g>
</g>
</g>
<mask id="mask5_8_3394" style="mask-type:luminance" maskUnits="userSpaceOnUse" x="67" y="20" width="64" height="73">
<path d="M67.5938 20.9323H130.172V92.4479H67.5938V20.9323Z" fill="white"/>
</mask>
<g mask="url(#mask5_8_3394)">
<mask id="mask6_8_3394" style="mask-type:luminance" maskUnits="userSpaceOnUse" x="67" y="21" width="64" height="72">
<path d="M103.469 21.0625C95.8021 21.0625 87.8021 22.1771 78.9948 24.4948L77.5677 24.8698L75.6667 38.6042L79.2605 37.0573C86.7396 33.8229 94.4063 32.1875 102.047 32.1875C106.771 32.1875 114.719 33.0937 114.719 39.1615C114.719 45.2187 106.37 47.2292 96.7084 49.5573C83.1459 52.8437 67.7709 56.5469 67.7709 73.1823C67.7709 85.8802 76.3855 92.3229 93.3802 92.3229C97.4011 92.3229 102.245 91.776 107.037 90.8854L109.219 78.3906L107.438 78.9896C103.031 80.4531 98.7865 81.1979 94.8177 81.1979C91.9427 81.1979 82.5313 80.6094 82.5313 73.0521C82.5313 65.3854 92.2605 62.6823 101.672 60.0729C106.427 58.7552 110.964 57.5052 114.505 55.6146C114.422 57.25 114.359 58.9167 114.276 60.6042C113.839 70.6146 113.375 80.9583 112.417 88.4115L112.094 90.901H128.188V88.7031C128.188 80.9427 128.771 69.7656 129.292 59.9115C129.703 52.2083 130.115 44.2448 130.115 39.8125C130.115 31.7604 127.349 21.0625 103.469 21.0625Z" fill="white"/>
</mask>
<g mask="url(#mask6_8_3394)">
<mask id="mask7_8_3394" style="mask-type:luminance" maskUnits="userSpaceOnUse" x="66" y="20" width="65" height="74">
<path d="M130.667 20H66.6667V93.3333H130.667V20Z" fill="white"/>
</mask>
<g mask="url(#mask7_8_3394)">
<mask id="mask8_8_3394" style="mask-type:luminance" maskUnits="userSpaceOnUse" x="67" y="20" width="64" height="73">
<path d="M67.5938 20.9323H130.172V92.3333H67.5938V20.9323Z" fill="white"/>
</mask>
<g mask="url(#mask8_8_3394)">
<mask id="mask9_8_3394" style="mask-type:luminance" maskUnits="userSpaceOnUse" x="67" y="21" width="64" height="72">
<path d="M103.469 21.0625C95.8021 21.0625 87.8021 22.1771 78.9948 24.4948L77.5677 24.8698L75.6667 38.6042L79.2605 37.0573C86.7396 33.8229 94.4063 32.1875 102.047 32.1875C106.771 32.1875 114.719 33.0937 114.719 39.1615C114.719 45.2187 106.37 47.2292 96.7084 49.5573C83.1459 52.8437 67.7709 56.5469 67.7709 73.1823C67.7709 85.8802 76.3855 92.3229 93.3802 92.3229C97.4011 92.3229 102.245 91.776 107.037 90.8854L109.219 78.3906L107.438 78.9896C103.031 80.4531 98.7865 81.1979 94.8177 81.1979C91.9427 81.1979 82.5313 80.6094 82.5313 73.0521C82.5313 65.3854 92.2605 62.6823 101.672 60.0729C106.427 58.7552 110.964 57.5052 114.505 55.6146C114.422 57.25 114.359 58.9167 114.276 60.6042C113.839 70.6146 113.375 80.9583 112.417 88.4115L112.094 90.901H128.188V88.7031C128.188 80.9427 128.771 69.7656 129.292 59.9115C129.703 52.2083 130.115 44.2448 130.115 39.8125C130.115 31.7604 127.349 21.0625 103.469 21.0625Z" fill="white"/>
</mask>
<g mask="url(#mask9_8_3394)">
<path d="M674.393 -65.1267H-294.727V212.793H674.393V-65.1267Z" fill="#48BAAA"/>
</g>
</g>
</g>
</g>
</g>
<mask id="mask10_8_3394" style="mask-type:luminance" maskUnits="userSpaceOnUse" x="140" y="0" width="21" height="92">
<path d="M140 0H160.672V91.401H140V0Z" fill="white"/>
</mask>
<g mask="url(#mask10_8_3394)">
<mask id="mask11_8_3394" style="mask-type:luminance" maskUnits="userSpaceOnUse" x="140" y="0" width="21" height="91">
<path d="M144.068 2.40103C143.427 30.9635 142.125 59.9531 140.193 88.5417L140.031 90.901H156.177L156.234 88.7552C156.99 60.5104 157.911 30.6042 159.974 2.61457L160.146 0.244781H144.104L144.068 2.40103Z" fill="white"/>
</mask>
<g mask="url(#mask11_8_3394)">
<mask id="mask12_8_3394" style="mask-type:luminance" maskUnits="userSpaceOnUse" x="140" y="0" width="22" height="92">
<path d="M161.333 0H140V92H161.333V0Z" fill="white"/>
</mask>
<g mask="url(#mask12_8_3394)">
<mask id="mask13_8_3394" style="mask-type:luminance" maskUnits="userSpaceOnUse" x="140" y="0" width="21" height="92">
<path d="M140 0.015625H160.417V91.0573H140V0.015625Z" fill="white"/>
</mask>
<g mask="url(#mask13_8_3394)">
<mask id="mask14_8_3394" style="mask-type:luminance" maskUnits="userSpaceOnUse" x="140" y="0" width="21" height="91">
<path d="M144.068 2.40103C143.427 30.9635 142.125 59.9531 140.193 88.5417L140.031 90.901H156.177L156.234 88.7552C156.99 60.5104 157.911 30.6042 159.974 2.61457L160.146 0.244781H144.104L144.068 2.40103Z" fill="white"/>
</mask>
<g mask="url(#mask14_8_3394)">
<path d="M674.393 -65.1267H-294.727V212.793H674.393V-65.1267Z" fill="#48BAAA"/>
</g>
</g>
</g>
</g>
</g>
<mask id="mask15_8_3394" style="mask-type:luminance" maskUnits="userSpaceOnUse" x="169" y="0" width="21" height="92">
<path d="M169.333 0H189.594V91.401H169.333V0Z" fill="white"/>
</mask>
<g mask="url(#mask15_8_3394)">
<mask id="mask16_8_3394" style="mask-type:luminance" maskUnits="userSpaceOnUse" x="169" y="0" width="21" height="91">
<path d="M173.417 2.40103C172.776 30.9635 171.474 59.9427 169.542 88.5417L169.38 90.901H185.526L185.583 88.7552C186.339 60.5 187.26 30.5625 189.323 2.61457L189.505 0.244781H173.469L173.417 2.40103Z" fill="white"/>
</mask>
<g mask="url(#mask16_8_3394)">
<mask id="mask17_8_3394" style="mask-type:luminance" maskUnits="userSpaceOnUse" x="169" y="0" width="22" height="92">
<path d="M190.667 0H169.333V92H190.667V0Z" fill="white"/>
</mask>
<g mask="url(#mask17_8_3394)">
<mask id="mask18_8_3394" style="mask-type:luminance" maskUnits="userSpaceOnUse" x="169" y="0" width="21" height="92">
<path d="M169.365 0.015625H189.594V91.0573H169.365V0.015625Z" fill="white"/>
</mask>
<g mask="url(#mask18_8_3394)">
<mask id="mask19_8_3394" style="mask-type:luminance" maskUnits="userSpaceOnUse" x="169" y="0" width="21" height="91">
<path d="M173.417 2.40103C172.776 30.9635 171.474 59.9427 169.542 88.5417L169.38 90.901H185.526L185.583 88.7552C186.339 60.5 187.26 30.5625 189.323 2.61457L189.505 0.244781H173.469L173.417 2.40103Z" fill="white"/>
</mask>
<g mask="url(#mask19_8_3394)">
<path d="M674.393 -65.1267H-294.727V212.793H674.393V-65.1267Z" fill="#48BAAA"/>
</g>
</g>
</g>
</g>
</g>
<mask id="mask20_8_3394" style="mask-type:luminance" maskUnits="userSpaceOnUse" x="190" y="21" width="77" height="101">
<path d="M190.667 21.9844H266.896V121.896H190.667V21.9844Z" fill="white"/>
</mask>
<g mask="url(#mask20_8_3394)">
<mask id="mask21_8_3394" style="mask-type:luminance" maskUnits="userSpaceOnUse" x="191" y="22" width="76" height="100">
<path d="M229.068 73.599C227.068 66.849 224.781 60.0885 222.542 53.4427C219.339 43.9167 216.01 34.0625 213.495 24.151L213.068 22.4844H196.349L220.385 90.3281C213.188 107.776 208.833 109.135 203.469 109.135C201.089 109.135 197.813 108.245 194.724 106.766L191.13 105.036L192.781 119.677L194.245 120.063C198.01 121.036 201.953 121.552 205.667 121.552C221.984 121.552 226.948 110.583 230.958 101.76L266.76 22.4844H250.375L229.068 73.599Z" fill="white"/>
</mask>
<g mask="url(#mask21_8_3394)">
<mask id="mask22_8_3394" style="mask-type:luminance" maskUnits="userSpaceOnUse" x="190" y="21" width="78" height="102">
<path d="M268 21.3333H190.667V122.667H268V21.3333Z" fill="white"/>
</mask>
<g mask="url(#mask22_8_3394)">
<mask id="mask23_8_3394" style="mask-type:luminance" maskUnits="userSpaceOnUse" x="191" y="22" width="76" height="100">
<path d="M191.083 22.375H266.792V121.724H191.083V22.375Z" fill="white"/>
</mask>
<g mask="url(#mask23_8_3394)">
<mask id="mask24_8_3394" style="mask-type:luminance" maskUnits="userSpaceOnUse" x="191" y="22" width="76" height="100">
<path d="M229.068 73.599C227.068 66.849 224.781 60.0885 222.542 53.4427C219.339 43.9167 216.01 34.0625 213.495 24.151L213.068 22.4844H196.349L220.385 90.3281C213.188 107.776 208.833 109.135 203.469 109.135C201.089 109.135 197.813 108.245 194.724 106.766L191.13 105.036L192.781 119.677L194.245 120.063C198.01 121.036 201.953 121.552 205.667 121.552C221.984 121.552 226.948 110.583 230.958 101.76L266.76 22.4844H250.375L229.068 73.599Z" fill="white"/>
</mask>
<g mask="url(#mask24_8_3394)">
<path d="M674.393 -65.1267H-294.727V212.793H674.393V-65.1267Z" fill="#48BAAA"/>
</g>
</g>
</g>
</g>
</g>
<mask id="mask25_8_3394" style="mask-type:luminance" maskUnits="userSpaceOnUse" x="260" y="0" width="72" height="92">
<path d="M260.583 0H331.578V91.401H260.583V0Z" fill="white"/>
</mask>
<g mask="url(#mask25_8_3394)">
<mask id="mask26_8_3394" style="mask-type:luminance" maskUnits="userSpaceOnUse" x="260" y="0" width="72" height="91">
<path d="M330.755 13.9114L331.344 0.244781H261.24L260.651 13.8333L263.089 13.6875C264.219 13.6198 265.349 13.5521 266.537 13.4739C269.823 13.2604 273.229 13.0469 276.542 13.0469H287.844L287.646 18.5729C286.859 41.5469 286.047 65.2917 284.302 88.5312L284.13 90.901H301.25V88.7031C301.25 68.2083 302.245 47.2969 303.219 27.0625L303.287 25.7864C303.484 21.5521 303.682 17.3073 303.885 13.0729H312.776C315.901 13.0729 323.198 13.2083 328.469 13.7135L330.755 13.9114Z" fill="white"/>
</mask>
<g mask="url(#mask26_8_3394)">
<mask id="mask27_8_3394" style="mask-type:luminance" maskUnits="userSpaceOnUse" x="260" y="0" width="72" height="92">
<path d="M332 0H260V92H332V0Z" fill="white"/>
</mask>
<g mask="url(#mask27_8_3394)">
<mask id="mask28_8_3394" style="mask-type:luminance" maskUnits="userSpaceOnUse" x="260" y="0" width="72" height="92">
<path d="M260.583 0.015625H331.578V91.0573H260.583V0.015625Z" fill="white"/>
</mask>
<g mask="url(#mask28_8_3394)">
<mask id="mask29_8_3394" style="mask-type:luminance" maskUnits="userSpaceOnUse" x="260" y="0" width="72" height="91">
<path d="M330.755 13.9114L331.344 0.244781H261.24L260.651 13.8333L263.089 13.6875C264.219 13.6198 265.349 13.5521 266.537 13.4739C269.823 13.2604 273.229 13.0469 276.542 13.0469H287.844L287.646 18.5729C286.859 41.5469 286.047 65.2917 284.302 88.5312L284.13 90.901H301.25V88.7031C301.25 68.2083 302.245 47.2969 303.219 27.0625L303.287 25.7864C303.484 21.5521 303.682 17.3073 303.885 13.0729H312.776C315.901 13.0729 323.198 13.2083 328.469 13.7135L330.755 13.9114Z" fill="white"/>
</mask>
<g mask="url(#mask29_8_3394)">
<path d="M674.393 -65.1267H-294.727V212.793H674.393V-65.1267Z" fill="#48BAAA"/>
</g>
</g>
</g>
</g>
</g>
<mask id="mask30_8_3394" style="mask-type:luminance" maskUnits="userSpaceOnUse" x="318" y="20" width="66" height="73">
<path d="M318.953 20.9323H383.635V92.4479H318.953V20.9323Z" fill="white"/>
</mask>
<g mask="url(#mask30_8_3394)">
<mask id="mask31_8_3394" style="mask-type:luminance" maskUnits="userSpaceOnUse" x="319" y="21" width="65" height="72">
<path d="M368.651 46.401H336.042C338.505 37.2187 345.026 32.1875 354.516 32.1875C365.203 32.1875 368.156 39.6823 368.651 46.401ZM353.479 21.0625C332.74 21.0625 319.339 35.6354 319.339 58.1823C319.339 73.7552 325.484 92.3229 354.771 92.3229C361.396 92.3229 367.974 91.4583 374.854 89.6615L376.198 89.3177L378.979 74.8229L375.411 76.0052C369.984 77.8177 362.901 79.9063 356.458 79.9063C342.854 79.9063 334.734 72.0781 334.734 58.9531V57.5469H382.865L383.078 55.5885C383.359 53.0729 383.479 51.2083 383.479 49.5313C383.479 31.4427 372.536 21.0729 353.479 21.0729" fill="white"/>
</mask>
<g mask="url(#mask31_8_3394)">
<mask id="mask32_8_3394" style="mask-type:luminance" maskUnits="userSpaceOnUse" x="318" y="20" width="66" height="74">
<path d="M384 20H318.667V93.3333H384V20Z" fill="white"/>
</mask>
<g mask="url(#mask32_8_3394)">
<mask id="mask33_8_3394" style="mask-type:luminance" maskUnits="userSpaceOnUse" x="319" y="20" width="65" height="73">
<path d="M319.182 20.9323H383.635V92.3333H319.182V20.9323Z" fill="white"/>
</mask>
<g mask="url(#mask33_8_3394)">
<mask id="mask34_8_3394" style="mask-type:luminance" maskUnits="userSpaceOnUse" x="319" y="21" width="65" height="72">
<path d="M368.651 46.401H336.042C338.505 37.2187 345.026 32.1875 354.516 32.1875C365.203 32.1875 368.156 39.6823 368.651 46.401ZM353.479 21.0625C332.74 21.0625 319.339 35.6354 319.339 58.1823C319.339 73.7552 325.484 92.3229 354.771 92.3229C361.396 92.3229 367.974 91.4583 374.854 89.6615L376.198 89.3177L378.979 74.8229L375.411 76.0052C369.984 77.8177 362.901 79.9063 356.458 79.9063C342.854 79.9063 334.734 72.0781 334.734 58.9531V57.5469H382.865L383.078 55.5885C383.359 53.0729 383.479 51.2083 383.479 49.5313C383.479 31.4427 372.536 21.0729 353.479 21.0729" fill="white"/>
</mask>
<g mask="url(#mask34_8_3394)">
<path d="M674.393 -65.1267H-294.727V212.793H674.393V-65.1267Z" fill="#48BAAA"/>
</g>
</g>
</g>
</g>
</g>
<mask id="mask35_8_3394" style="mask-type:luminance" maskUnits="userSpaceOnUse" x="387" y="20" width="57" height="73">
<path d="M387.318 20.9323H443.583V92.4479H387.318V20.9323Z" fill="white"/>
</mask>
<g mask="url(#mask35_8_3394)">
<mask id="mask36_8_3394" style="mask-type:luminance" maskUnits="userSpaceOnUse" x="387" y="21" width="57" height="72">
<path d="M422.787 33.4948C429.958 33.4948 435.453 34.9948 440.328 36.6094L443.469 37.6562L442.469 24.0417L441.005 23.6146C435.281 21.9271 429.162 21.0729 422.797 21.0729C400.849 21.0729 387.75 35.1406 387.75 58.7135C387.75 80.0937 399.865 92.3385 420.99 92.3385C426.51 92.3385 432.037 91.724 437.88 90.474L439.328 90.1562L441.74 76.0729L438.292 77.1614C434.245 78.4427 428.948 79.9062 423.823 79.9062C410.484 79.9062 403.141 72.3333 403.141 58.5677C403.141 46.4427 408.302 33.4792 422.787 33.4792" fill="white"/>
</mask>
<g mask="url(#mask36_8_3394)">
<mask id="mask37_8_3394" style="mask-type:luminance" maskUnits="userSpaceOnUse" x="386" y="20" width="58" height="74">
<path d="M444 20H386.667V93.3333H444V20Z" fill="white"/>
</mask>
<g mask="url(#mask37_8_3394)">
<mask id="mask38_8_3394" style="mask-type:luminance" maskUnits="userSpaceOnUse" x="387" y="20" width="57" height="73">
<path d="M387.547 20.9323H443.583V92.4479H387.547V20.9323Z" fill="white"/>
</mask>
<g mask="url(#mask38_8_3394)">
<mask id="mask39_8_3394" style="mask-type:luminance" maskUnits="userSpaceOnUse" x="387" y="21" width="57" height="72">
<path d="M422.787 33.4948C429.958 33.4948 435.453 34.9948 440.328 36.6094L443.469 37.6562L442.469 24.0417L441.005 23.6146C435.281 21.9271 429.162 21.0729 422.797 21.0729C400.849 21.0729 387.75 35.1406 387.75 58.7135C387.75 80.0937 399.865 92.3385 420.99 92.3385C426.51 92.3385 432.037 91.724 437.88 90.474L439.328 90.1562L441.74 76.0729L438.292 77.1614C434.245 78.4427 428.948 79.9062 423.823 79.9062C410.484 79.9062 403.141 72.3333 403.141 58.5677C403.141 46.4427 408.302 33.4792 422.787 33.4792" fill="white"/>
</mask>
<g mask="url(#mask39_8_3394)">
<path d="M674.393 -65.1267H-294.727V212.793H674.393V-65.1267Z" fill="#48BAAA"/>
</g>
</g>
</g>
</g>
</g>
<mask id="mask40_8_3394" style="mask-type:luminance" maskUnits="userSpaceOnUse" x="449" y="0" width="70" height="92">
<path d="M449.896 0H518.667V91.401H449.896V0Z" fill="white"/>
</mask>
<g mask="url(#mask40_8_3394)">
<mask id="mask41_8_3394" style="mask-type:luminance" maskUnits="userSpaceOnUse" x="450" y="0" width="69" height="91">
<path d="M491.969 21.0625C481.219 21.0625 473.339 23.9219 467.974 29.7917C468.401 20.7396 469.01 11.5573 469.609 2.59895L469.755 0.244781H453.849L453.823 2.41145C453.438 31.0312 452.266 60.0052 450.339 88.5417L450.177 90.901H466.203L466.281 85.8802C466.401 77.2969 466.656 59.4323 468.771 49.5989C470.901 39.9062 478.021 34.1302 487.833 34.1302C498.146 34.1302 502.953 38.2864 502.953 47.1875C502.953 58.0885 501.49 79.7969 500.917 88.1302L500.729 90.901H516.516L516.542 88.7292C516.609 82.7292 517.193 70.151 517.672 59.8333C518.031 52.0312 518.354 45.2969 518.354 43.3177C518.354 28.7656 509.224 21.0729 491.958 21.0729" fill="white"/>
</mask>
<g mask="url(#mask41_8_3394)">
<mask id="mask42_8_3394" style="mask-type:luminance" maskUnits="userSpaceOnUse" x="449" y="0" width="70" height="92">
<path d="M518.667 0H449.333V92H518.667V0Z" fill="white"/>
</mask>
<g mask="url(#mask42_8_3394)">
<mask id="mask43_8_3394" style="mask-type:luminance" maskUnits="userSpaceOnUse" x="450" y="0" width="69" height="92">
<path d="M450.156 0.015625H518.521V91.0573H450.156V0.015625Z" fill="white"/>
</mask>
<g mask="url(#mask43_8_3394)">
<mask id="mask44_8_3394" style="mask-type:luminance" maskUnits="userSpaceOnUse" x="450" y="0" width="69" height="91">
<path d="M491.969 21.0625C481.219 21.0625 473.339 23.9219 467.974 29.7917C468.401 20.7396 469.01 11.5573 469.609 2.59895L469.755 0.244781H453.849L453.823 2.41145C453.438 31.0312 452.266 60.0052 450.339 88.5417L450.177 90.901H466.203L466.281 85.8802C466.401 77.2969 466.656 59.4323 468.771 49.5989C470.901 39.9062 478.021 34.1302 487.833 34.1302C498.146 34.1302 502.953 38.2864 502.953 47.1875C502.953 58.0885 501.49 79.7969 500.917 88.1302L500.729 90.901H516.516L516.542 88.7292C516.609 82.7292 517.193 70.151 517.672 59.8333C518.031 52.0312 518.354 45.2969 518.354 43.3177C518.354 28.7656 509.224 21.0729 491.958 21.0729" fill="white"/>
</mask>
<g mask="url(#mask44_8_3394)">
<path d="M674.393 -65.1267H-294.727V212.793H674.393V-65.1267Z" fill="#48BAAA"/>
</g>
</g>
</g>
</g>
</g>
</svg>
